<svg width="36" height="36" viewBox="0 0 36 36" fill="none" xmlns="http://www.w3.org/2000/svg">
<path d="M18 0.5C8.34 0.5 0.5 8.34 0.5 18C0.5 27.66 8.34 35.5 18 35.5C27.66 35.5 35.5 27.66 35.5 18C35.5 8.34 27.66 0.5 18 0.5ZM9.3725 28.99C10.125 27.415 14.71 25.875 18 25.875C21.29 25.875 25.8925 27.415 26.6275 28.99C24.2475 30.88 21.255 32 18 32C14.745 32 11.7525 30.88 9.3725 28.99ZM29.13 26.4525C26.6275 23.4075 20.555 22.375 18 22.375C15.445 22.375 9.3725 23.4075 6.87 26.4525C5.085 24.1075 4 21.185 4 18C4 10.2825 10.2825 4 18 4C25.7175 4 32 10.2825 32 18C32 21.185 30.915 24.1075 29.13 26.4525V26.4525ZM18 7.5C14.605 7.5 11.875 10.23 11.875 13.625C11.875 17.02 14.605 19.75 18 19.75C21.395 19.75 24.125 17.02 24.125 13.625C24.125 10.23 21.395 7.5 18 7.5ZM18 16.25C16.5475 16.25 15.375 15.0775 15.375 13.625C15.375 12.1725 16.5475 11 18 11C19.4525 11 20.625 12.1725 20.625 13.625C20.625 15.0775 19.4525 16.25 18 16.25Z" fill="#383838"/>
</svg>
