<svg width="48" height="48" viewBox="0 0 48 48" fill="none" xmlns="http://www.w3.org/2000/svg">
<circle cx="24" cy="24" r="24" fill="url(#paint0_linear)"/>
<path d="M30.15 13.3499L26.15 17.3499C26.05 17.4499 26 17.5699 26 17.7099V25.8799C26 26.3099 26.51 26.5399 26.83 26.2499L30.83 22.6499C30.94 22.5599 31 22.4199 31 22.2799V13.7099C31 13.2599 30.46 13.0399 30.15 13.3499ZM34.47 17.1999C34 16.9599 33.51 16.7599 33 16.5899V28.6199C31.86 28.2099 30.69 27.9999 29.5 27.9999C27.6 27.9999 25.72 28.5399 24 29.5799V17.4799C22.38 16.5499 20.51 15.9999 18.5 15.9999C16.71 15.9999 15.02 16.4399 13.53 17.1999C13.2 17.3599 13 17.7099 13 18.0799V30.1599C13 30.9199 13.81 31.3899 14.48 31.0299C15.69 30.3999 17.05 29.9999 18.5 29.9999C20.57 29.9999 22.48 30.8199 24 31.9999C25.52 30.8199 27.43 29.9999 29.5 29.9999C30.95 29.9999 32.31 30.3999 33.52 31.0399C34.19 31.3999 35 30.9299 35 30.1699V18.0799C35 17.7099 34.8 17.3599 34.47 17.1999Z" fill="#11DAC2"/>
<defs>
<linearGradient id="paint0_linear" x1="24" y1="0" x2="24" y2="48" gradientUnits="userSpaceOnUse">
<stop stop-color="#11DAC2" stop-opacity="0.16"/>
<stop offset="0.494833" stop-color="#11DAC2" stop-opacity="0.05"/>
</linearGradient>
</defs>
</svg>
