<svg width="13" height="13" viewBox="0 0 13 13" fill="none" xmlns="http://www.w3.org/2000/svg">
<path d="M11.5 3.375H9V2.125L7.75 0.875H5.25L4 2.125V3.375H1.5C0.8125 3.375 0.25 3.9375 0.25 4.625V7.75C0.25 8.21875 0.5 8.6125 0.875 8.83125V10.875C0.875 11.5688 1.43125 12.125 2.125 12.125H10.875C11.5688 12.125 12.125 11.5688 12.125 10.875V8.825C12.4937 8.60625 12.75 8.20625 12.75 7.75V4.625C12.75 3.9375 12.1875 3.375 11.5 3.375ZM5.25 2.125H7.75V3.375H5.25V2.125ZM1.5 4.625H11.5V7.75H8.375V5.875H4.625V7.75H1.5V4.625ZM7.125 8.375H5.875V7.125H7.125V8.375ZM10.875 10.875H2.125V9H4.625V9.625H8.375V9H10.875V10.875Z" fill="#75C244"/>
</svg>
