<svg width="25" height="20" viewBox="0 0 25 20" fill="none" xmlns="http://www.w3.org/2000/svg">
<path fill-rule="evenodd" clip-rule="evenodd" d="M2.16086 2.88021V17.6724C3.52932 17.1506 5.30175 16.6408 7.06077 16.4649C8.6916 16.2994 10.4566 16.4068 11.8504 17.1983V2.67003C10.8755 1.64294 9.19396 1.34927 7.21133 1.54902C5.37182 1.73387 3.48013 2.32866 2.16086 2.88021ZM13.3411 2.67003V17.1983C14.7349 16.4083 16.5013 16.2994 18.1307 16.4634C19.8897 16.6423 21.6636 17.1506 23.0306 17.6724V2.88021C21.7113 2.32866 19.8196 1.73387 17.9801 1.54902C15.9975 1.34927 14.316 1.64294 13.3411 2.67003ZM12.5957 1.32244C11.1274 0.0598198 8.99868 -0.128008 7.06077 0.0657826C4.80386 0.293859 2.52608 1.06753 1.10694 1.713C0.976726 1.77222 0.866305 1.86766 0.788857 1.98793C0.711409 2.1082 0.670206 2.24822 0.670166 2.39127V18.7889C0.670201 18.9136 0.701526 19.0363 0.761273 19.1458C0.82102 19.2553 0.907278 19.348 1.01215 19.4155C1.11702 19.483 1.23714 19.5231 1.36153 19.5321C1.48591 19.5411 1.61057 19.5188 1.72409 19.4672C3.03888 18.8709 5.15716 18.1539 7.20984 17.9467C9.31023 17.735 11.0707 18.0764 12.0144 19.254C12.0842 19.3411 12.1727 19.4113 12.2733 19.4596C12.3739 19.5079 12.4841 19.5329 12.5957 19.5329C12.7073 19.5329 12.8175 19.5079 12.9181 19.4596C13.0188 19.4113 13.1073 19.3411 13.1771 19.254C14.1207 18.0764 15.8812 17.735 17.9801 17.9467C20.0343 18.1539 22.1541 18.8709 23.4674 19.4672C23.5809 19.5188 23.7055 19.5411 23.8299 19.5321C23.9543 19.5231 24.0744 19.483 24.1793 19.4155C24.2842 19.348 24.3704 19.2553 24.4302 19.1458C24.4899 19.0363 24.5212 18.9136 24.5213 18.7889V2.39127C24.5212 2.24822 24.48 2.1082 24.4026 1.98793C24.3251 1.86766 24.2147 1.77222 24.0845 1.713C22.6654 1.06753 20.3876 0.293859 18.1307 0.0657826C16.1928 -0.129498 14.0641 0.0598198 12.5957 1.32244Z" fill="white"/>
</svg>
