<svg width="48" height="48" viewBox="0 0 48 48" fill="none" xmlns="http://www.w3.org/2000/svg">
<circle cx="24" cy="24" r="24" fill="url(#paint0_linear)"/>
<path d="M32.5999 14.9C32.3835 14.7742 32.1163 14.7742 31.8999 14.9C31.062 15.3649 30.1183 15.606 29.16 15.6C27.7588 15.631 26.404 15.0977 25.4 14.12C24.2408 12.9854 22.6736 12.3654 21.052 12.4C19.746 12.3887 18.4691 12.7859 17.4 13.536V13.2C17.4 12.5373 16.8628 12 16.2 12C15.5372 12 15 12.5372 15 13.2V34.8C15 35.4627 15.5372 36 16.2 36C16.8627 36 17.4 35.4628 17.4 34.8V24.4C17.5326 24.3876 17.6588 24.3376 17.764 24.256C18.7156 23.5552 19.8702 23.1844 21.052 23.2C22.4557 23.1677 23.8134 23.701 24.82 24.68C25.9769 25.8129 27.541 26.4328 29.16 26.4C30.4007 26.4144 31.6177 26.0594 32.656 25.38C32.8782 25.226 33.0076 24.9702 33 24.6999V15.6C33.0025 15.3116 32.8497 15.0442 32.5999 14.9Z" fill="#FFC701"/>
<defs>
<linearGradient id="paint0_linear" x1="24" y1="0" x2="24" y2="48" gradientUnits="userSpaceOnUse">
<stop stop-color="#FFC701" stop-opacity="0.16"/>
<stop offset="0.494792" stop-color="#FFC701" stop-opacity="0.05"/>
</linearGradient>
</defs>
</svg>
