<?xml version="1.0" encoding="UTF-8"?>
<!DOCTYPE svg PUBLIC "-//W3C//DTD SVG 1.1//EN" "http://www.w3.org/Graphics/SVG/1.1/DTD/svg11.dtd">
<!-- Creator: CorelDRAW -->
<svg xmlns="http://www.w3.org/2000/svg" xml:space="preserve" width="0.333335in" height="0.333335in" style="shape-rendering:geometricPrecision; text-rendering:geometricPrecision; image-rendering:optimizeQuality; fill-rule:evenodd; clip-rule:evenodd"
viewBox="0 0 0.0107706 0.0107706"
 xmlns:xlink="http://www.w3.org/1999/xlink">
 <defs>
  <style type="text/css">
   <![CDATA[
    .fil1 {fill:#75C244}
    .fil0 {fill:#E3E3E3}
   ]]>
  </style>
 </defs>
 <g id="Layer_x0020_1">
  <metadata id="CorelCorpID_0Corel-Layer"/>
  <rect class="fil0" width="0.0107706" height="0.0107706" rx="0.00289534" ry="0.00289534"/>
  <g id="_260434384">
   <path id="_260428192" class="fil1" d="M0.00269269 0.00706814c0,0.000278721 0.000226182,0.000504903 0.000504903,0.000504903l0.00437545 0c0.000278594,0 0.000504776,-0.000226182 0.000504776,-0.000504903l0 -0.00201936 -0.000336602 0 0 0.00201936c0,9.29918e-005 -7.53093e-005,0.000168301 -0.000168174,0.000168301l-0.00437545 0c-9.29918e-005,0 -0.000168301,-7.53093e-005 -0.000168301,-0.000168301l0 -0.00201936 -0.000336602 0 0 0.00201936z"/>
   <path id="_260428096" class="fil1" d="M0.00269269 0.0043757c0,-0.000278721 0.000226182,-0.000504903 0.000504903,-0.000504903l0.00437545 0c0.000278594,0 0.000504776,0.000226182 0.000504776,0.000504903l0 0.000802833 -0.00256293 0.000682109c-8.38325e-005,2.23893e-005 -0.000175298,2.23893e-005 -0.000259257,0l-0.00256293 -0.000682109 0 -0.000802833zm0.000504903 -0.000168301c-9.29918e-005,0 -0.000168301,7.53093e-005 -0.000168301,0.000168301l0 0.000543448 0.00231207 0.000616977c2.8241e-005,7.25107e-006 5.95351e-005,7.25107e-006 8.77761e-005,0l0.00231207 -0.000616977 0 -0.000543448c0,-9.29918e-005 -7.53093e-005,-0.000168301 -0.000168174,-0.000168301l-0.00437545 0zm0.00117798 -0.000504903c0,-0.000278721 0.000226182,-0.000504903 0.000504903,-0.000504903l0.00100955 0c0.000278721,0 0.000504903,0.000226182 0.000504903,0.000504903l0 0.000168301 -0.000336602 0 0 -0.000168301c0,-9.28646e-005 -7.53093e-005,-0.000168301 -0.000168301,-0.000168301l-0.00100955 0c-9.28646e-005,0 -0.000168301,7.54365e-005 -0.000168301,0.000168301l0 0.000168301 -0.000336602 0 0 -0.000168301z"/>
  </g>
 </g>
</svg>
