<svg width="13" height="13" viewBox="0 0 13 13" fill="none" xmlns="http://www.w3.org/2000/svg">
<path d="M9.625 5.875V0.875H3.375V3.375H0.875V12.125H5.875V9.625H7.125V12.125H12.125V5.875H9.625ZM3.375 10.875H2.125V9.625H3.375V10.875ZM3.375 8.375H2.125V7.125H3.375V8.375ZM3.375 5.875H2.125V4.625H3.375V5.875ZM5.875 8.375H4.625V7.125H5.875V8.375ZM5.875 5.875H4.625V4.625H5.875V5.875ZM5.875 3.375H4.625V2.125H5.875V3.375ZM8.375 8.375H7.125V7.125H8.375V8.375ZM8.375 5.875H7.125V4.625H8.375V5.875ZM8.375 3.375H7.125V2.125H8.375V3.375ZM10.875 10.875H9.625V9.625H10.875V10.875ZM10.875 8.375H9.625V7.125H10.875V8.375Z" fill="#75C244"/>
</svg>
