<?xml version="1.0" encoding="UTF-8"?>
<!DOCTYPE svg PUBLIC "-//W3C//DTD SVG 1.1//EN" "http://www.w3.org/Graphics/SVG/1.1/DTD/svg11.dtd">
<!-- Creator: CorelDRAW -->
<svg xmlns="http://www.w3.org/2000/svg" xml:space="preserve" width="0.333335in" height="0.333335in" style="shape-rendering:geometricPrecision; text-rendering:geometricPrecision; image-rendering:optimizeQuality; fill-rule:evenodd; clip-rule:evenodd"
viewBox="0 0 0.0100149 0.0100149"
 xmlns:xlink="http://www.w3.org/1999/xlink">
 <defs>
  <style type="text/css">
   <![CDATA[
    .fil1 {fill:#75C244}
    .fil0 {fill:#E3E3E3}
   ]]>
  </style>
 </defs>
 <g id="Layer_x0020_1">
  <metadata id="CorelCorpID_0Corel-Layer"/>
  <rect class="fil0" width="0.0100149" height="0.0100149" rx="0.0026922" ry="0.0026922"/>
  <path class="fil1" d="M0.00525759 0.00726101l0.000501534 -0.000250767 0.000500469 0.000250767 0 -0.00175312 -0.001002 0 0 0.00175312zm0.001002 -0.00300471l0 -0.000500469 -0.000500469 0.000249702 -0.000501534 -0.000249702 0 0.000500469 -0.000500351 0.000250767 0.000500351 0.000249584 0 0.000501534 0.000501534 -0.000250767 0.000500469 0.000250767 0 -0.000501534 0.000500351 -0.000249584 -0.000500351 -0.000250767zm0.000751118 -0.00150235l-0.00400659 0c-0.000132244,0 -0.000260348,5.21643e-005 -0.000354268,0.000146084 -9.39193e-005,9.40376e-005 -0.000146084,0.000222023 -0.000146084,0.000354386l0 0.00250424c0,0.000132244 5.21643e-005,0.00026023 0.000146084,0.000354268 9.39193e-005,9.39193e-005 0.000222023,0.000146084 0.000354268,0.000146084l0.00175312 0 0 -0.000500351 -0.00175312 0 0 -0.00250424 0.00400659 0 0 0.00250424 -0.000250767 0 0 0.000500351 0.000250767 0c0.000132244,0 0.000260348,-5.21643e-005 0.000354268,-0.000146084 9.39193e-005,-9.40376e-005 0.000146202,-0.000222023 0.000146202,-0.000354268l0 -0.00250424c0,-0.000132362 -5.22826e-005,-0.000260348 -0.000146202,-0.000354386 -9.39193e-005,-9.39193e-005 -0.000222023,-0.000146084 -0.000354268,-0.000146084zm-0.00225347 0.00125159l-0.00150235 0 0 -0.000500469 0.00150235 0 0 0.000500469zm-0.000500469 0.000751118l-0.00100189 0 0 -0.000500351 0.00100189 0 0 0.000500351zm0.000500469 0.000751236l-0.00150235 0 0 -0.000500469 0.00150235 0 0 0.000500469z"/>
 </g>
</svg>
