<svg width="48" height="48" viewBox="0 0 48 48" fill="none" xmlns="http://www.w3.org/2000/svg">
<circle cx="24" cy="24" r="24" fill="url(#paint0_linear)"/>
<path d="M33.5103 20.9628C32.7136 20.9628 32.3152 21.2616 31.9169 21.5603C31.7177 21.6599 31.419 21.6599 31.3194 21.4607C31.2198 21.3612 31.2198 21.2616 31.2198 21.0624L31.6182 16.4815C31.6182 16.382 31.6182 16.1828 31.5186 16.0832C31.419 15.9836 31.3194 15.884 31.1203 15.884H26.639C26.2406 15.884 25.9418 16.0832 25.7427 16.382C25.5435 16.6807 25.5435 17.0791 25.7427 17.3778C25.9419 17.6766 26.0414 17.8757 26.0414 18.3736C26.0414 19.1703 25.1452 19.8674 24.0497 19.8674C22.9543 19.8674 22.058 19.1703 22.058 18.3736C22.058 17.9753 22.1576 17.6765 22.3568 17.3778C22.556 17.0791 22.556 16.6807 22.3568 16.382C22.1576 16.0833 21.8588 15.884 21.4605 15.884H16.9792C16.8796 15.884 16.6805 15.9836 16.5809 16.0832C16.4813 16.1828 16.4813 16.2824 16.4813 16.4815L16.8796 21.0624C16.8796 21.2616 16.7801 21.3612 16.7801 21.4607C16.5809 21.6599 16.3817 21.7595 16.0829 21.5603C15.6846 21.2616 15.2863 21.0624 14.4896 21.0624C13.0954 21.0624 12 22.357 12 24.0499C12 25.7429 13.0954 27.0375 14.4896 27.0375C15.2862 27.0375 15.6846 26.7387 16.0829 26.44C16.2821 26.3404 16.5809 26.3404 16.6805 26.5395C16.78 26.6391 16.78 26.7387 16.78 26.9378L16.3817 31.5187C16.3817 31.6183 16.3817 31.8175 16.4813 31.9171C16.5808 32.0166 16.6805 32.1162 16.8796 32.1162H21.3609C21.7592 32.1162 22.058 31.9171 22.2572 31.6183C22.4564 31.3195 22.4564 30.9212 22.2572 30.6225C22.058 30.3237 21.9584 30.1245 21.9584 29.6266C21.9584 28.83 22.8547 28.1329 23.9501 28.1329C25.0456 28.1329 25.9418 28.83 25.9418 29.6266C25.9418 30.025 25.8423 30.3238 25.6431 30.6225C25.4439 30.9212 25.4439 31.3196 25.6431 31.6183C25.8423 31.917 26.141 32.1162 26.5393 32.1162H31.0207C31.1202 32.1162 31.3194 32.0167 31.419 31.9171C31.5185 31.8175 31.5185 31.7179 31.5185 31.5187L31.1202 26.9378C31.1202 26.7387 31.2198 26.6391 31.2198 26.5395C31.419 26.3403 31.6181 26.2408 31.9169 26.44C32.3152 26.7387 32.7136 26.9379 33.5103 26.9379C34.9045 26.9379 35.9999 25.6433 35.9999 23.9504C35.9999 22.2574 34.9045 20.9628 33.5103 20.9628Z" fill="#4CBA30"/>
<defs>
<linearGradient id="paint0_linear" x1="24" y1="0" x2="24" y2="48" gradientUnits="userSpaceOnUse">
<stop stop-color="#4CBA30" stop-opacity="0.16"/>
<stop offset="0.473958" stop-color="#4CBA30" stop-opacity="0.05"/>
</linearGradient>
</defs>
</svg>
