<svg width="126" height="126" viewBox="0 0 126 126" fill="none" xmlns="http://www.w3.org/2000/svg">
<path d="M63 0.5C28.5 0.5 0.5 28.5 0.5 63C0.5 97.5 28.5 125.5 63 125.5C97.5 125.5 125.5 97.5 125.5 63C125.5 28.5 97.5 0.5 63 0.5ZM63 113C35.4375 113 13 90.5625 13 63C13 35.4375 35.4375 13 63 13C90.5625 13 113 35.4375 113 63C113 90.5625 90.5625 113 63 113ZM87.25 39.8125L50.5 76.5625L38.75 64.8125C36.3125 62.375 32.375 62.375 29.9375 64.8125C27.5 67.25 27.5 71.1875 29.9375 73.625L46.125 89.8125C48.5625 92.25 52.5 92.25 54.9375 89.8125L96.125 48.625C98.5625 46.1875 98.5625 42.25 96.125 39.8125C93.6875 37.375 89.6875 37.375 87.25 39.8125Z" fill="white"/>
</svg>
