<svg width="16" height="20" viewBox="0 0 16 20" fill="none" xmlns="http://www.w3.org/2000/svg">
<path fill-rule="evenodd" clip-rule="evenodd" d="M15.5971 0.103753C15.6804 0.159459 15.7487 0.234811 15.796 0.323156C15.8432 0.411501 15.868 0.510122 15.8681 0.610313V9.765C15.8681 9.88688 15.8316 10.006 15.7633 10.1069C15.695 10.2079 15.598 10.286 15.4848 10.3314L15.2578 9.765L15.4848 10.3314L15.4812 10.3326L15.4739 10.3363L15.4458 10.3472C15.2853 10.411 15.1238 10.4721 14.9612 10.5303C14.639 10.6463 14.191 10.8025 13.6832 10.9576C12.6872 11.2651 11.3897 11.5959 10.3753 11.5959C9.34144 11.5959 8.48579 11.2542 7.7412 10.9551L7.70703 10.9429C6.93315 10.6316 6.27401 10.3753 5.49281 10.3753C4.63838 10.3753 3.49343 10.6561 2.51815 10.9576C2.08148 11.0936 1.64879 11.2422 1.22063 11.4031V18.9197C1.22063 19.0816 1.15632 19.2368 1.04187 19.3512C0.927413 19.4657 0.772177 19.53 0.610313 19.53C0.448448 19.53 0.293212 19.4657 0.178757 19.3512C0.0643007 19.2368 0 19.0816 0 18.9197V0.610313C0 0.448448 0.0643007 0.293212 0.178757 0.178756C0.293212 0.0643006 0.448448 0 0.610313 0C0.772177 0 0.927413 0.0643006 1.04187 0.178756C1.15632 0.293212 1.22063 0.448448 1.22063 0.610313V0.954529C1.49649 0.858099 1.82606 0.747023 2.18492 0.637166C3.18095 0.33201 4.47969 0 5.49281 0C6.51814 0 7.35305 0.338113 8.08176 0.633504L8.13424 0.655476C8.89347 0.961852 9.55505 1.22063 10.3753 1.22063C11.2298 1.22063 12.3747 0.939881 13.35 0.638387C13.9057 0.464829 14.455 0.271027 14.9966 0.0573694L15.0198 0.048825L15.0247 0.0463837H15.0259L15.5971 0.103753ZM14.6475 1.49038C14.379 1.58559 14.0616 1.69423 13.7125 1.80164C12.7238 2.10924 11.4275 2.44003 10.3753 2.44003C9.29384 2.44003 8.43208 2.09093 7.68628 1.78822L7.67651 1.78455C6.91118 1.47696 6.27279 1.22063 5.49281 1.22063C4.67621 1.22063 3.53249 1.50015 2.545 1.80408C2.09961 1.9415 1.65799 2.09088 1.22063 2.25205V10.1043C1.48916 10.0091 1.80653 9.90049 2.15562 9.79307C3.14433 9.48426 4.44063 9.15469 5.49281 9.15469C6.52668 9.15469 7.38234 9.49646 8.12692 9.79552L8.1611 9.80772C8.93498 10.119 9.59411 10.3753 10.3753 10.3753C11.1907 10.3753 12.3356 10.0958 13.3231 9.79185C13.7685 9.65442 14.2101 9.50504 14.6475 9.34389V1.4916V1.49038Z" fill="white"/>
</svg>
