<svg width="25" height="24" viewBox="0 0 25 24" fill="none" xmlns="http://www.w3.org/2000/svg">
<path d="M7.32485 10.6549H0.931885V12.7859H7.32485V10.6549ZM9.63697 7.20274L7.37812 4.94389L5.87578 6.44624L8.13462 8.70508L9.63697 7.20274ZM13.7178 0H11.5868V6.39296H13.7178V0ZM19.4289 6.44624L17.9265 4.94389L15.6677 7.20274L17.17 8.70508L19.4289 6.44624ZM17.9798 10.6549V12.7859H24.3727V10.6549H17.9798ZM12.6523 8.52395C11.8046 8.52395 10.9915 8.86072 10.3921 9.46018C9.79261 10.0596 9.45583 10.8727 9.45583 11.7204C9.45583 12.5682 9.79261 13.3812 10.3921 13.9807C10.9915 14.5801 11.8046 14.9169 12.6523 14.9169C13.5001 14.9169 14.3131 14.5801 14.9126 13.9807C15.512 13.3812 15.8488 12.5682 15.8488 11.7204C15.8488 10.8727 15.512 10.0596 14.9126 9.46018C14.3131 8.86072 13.5001 8.52395 12.6523 8.52395ZM15.6677 16.2381L17.9265 18.497L19.4289 16.9946L17.17 14.7358L15.6677 16.2381ZM5.87578 16.9946L7.37812 18.497L9.63697 16.2381L8.13462 14.7358L5.87578 16.9946ZM11.5868 23.4409H13.7178V17.0479H11.5868V23.4409Z" fill="white"/>
</svg>
