<svg width="23" height="21" viewBox="0 0 23 21" fill="none" xmlns="http://www.w3.org/2000/svg">
<path d="M22.0013 6.5L15.5313 5.96L13.0013 0L10.4713 5.96L4.00131 6.5L8.90131 10.77L7.44131 17.1L13.0013 13.74L18.5613 17.1L17.0913 10.77L22.0013 6.5ZM15.1413 11.23L15.5413 12.94L14.0313 12.03L13.0013 11.41L11.9713 12.03L10.4613 12.94L10.8513 11.23L11.1313 10.05L10.2213 9.26L8.88132 8.1L10.6413 7.95L11.8413 7.85L12.3113 6.74L13.0013 5.12L13.6913 6.74L14.1613 7.85L15.3613 7.95L17.1113 8.1L15.7813 9.26L14.8613 10.05L15.1413 11.23ZM0.161315 11C-0.137685 10.5 -0.00968516 9.89 0.451315 9.59L3.18131 7.79L4.75131 9.15L1.55131 11.26C1.38131 11.37 1.19131 11.43 1.00131 11.43C0.681315 11.43 0.361315 11.27 0.161315 11ZM0.451315 19.16L6.31131 15.31L6.00131 16.76L5.66131 18.13L1.55131 20.84C1.38131 20.95 1.19131 21 1.00131 21C0.681315 21 0.361315 20.84 0.161315 20.55C-0.137685 20.09 -0.00968516 19.47 0.451315 19.16ZM6.32131 10.5L7.24131 11.31L6.97131 12.5L1.55131 16.05C1.38131 16.16 1.19131 16.21 1.00131 16.21C0.681315 16.21 0.361315 16.06 0.161315 15.76C-0.137685 15.3 -0.00968516 14.68 0.451315 14.38L6.32131 10.5Z" fill="white"/>
</svg>
