<svg width="48" height="48" viewBox="0 0 48 48" fill="none" xmlns="http://www.w3.org/2000/svg">
<circle cx="24" cy="24" r="24" fill="url(#paint0_linear)"/>
<path d="M12.1613 25C11.8623 24.5 11.9903 23.89 12.4513 23.59L15.1813 21.79L16.7513 23.15L13.5513 25.26C13.3813 25.37 13.1913 25.43 13.0013 25.43C12.6813 25.43 12.3613 25.27 12.1613 25ZM12.4513 33.16L18.3113 29.31L18.0013 30.76L17.6613 32.13L13.5513 34.84C13.3813 34.95 13.1913 35 13.0013 35C12.6813 35 12.3613 34.84 12.1613 34.55C11.8623 34.09 11.9903 33.47 12.4513 33.16ZM18.3213 24.5L19.2413 25.31L18.9713 26.5L13.5513 30.05C13.3813 30.16 13.1913 30.21 13.0013 30.21C12.6813 30.21 12.3613 30.06 12.1613 29.76C11.8623 29.3 11.9903 28.68 12.4513 28.38L18.3213 24.5Z" fill="#008AD8"/>
<path d="M26 28.27L32.18 32L30.54 24.97L36 20.24L28.81 19.63L26 13L23.19 19.63L16 20.24L21.46 24.97L19.82 32L26 28.27Z" fill="#008AD8"/>
<defs>
<linearGradient id="paint0_linear" x1="24" y1="0" x2="24" y2="48" gradientUnits="userSpaceOnUse">
<stop stop-color="#3D8AFF" stop-opacity="0.16"/>
<stop offset="0.473958" stop-color="#3D8AFF" stop-opacity="0.05"/>
</linearGradient>
</defs>
</svg>
