<svg width="15" height="15" viewBox="0 0 15 15" fill="none" xmlns="http://www.w3.org/2000/svg">
<path d="M0.199219 0.740417H14.1521V3.531H0.199219V0.740417ZM0.199219 4.92629H5.78038V9.11215H0.199219V4.92629ZM0.199219 10.5074H5.78038V11.9027H0.199219V10.5074ZM0.199219 13.298H5.78038V14.6933H0.199219V13.298ZM7.17567 4.92629H9.96624V6.32157H7.17567V4.92629ZM11.3615 4.92629H14.1521V6.32157H11.3615V4.92629ZM7.17567 7.71686H9.96624V9.11215H7.17567V7.71686ZM11.3615 7.71686H14.1521V9.11215H11.3615V7.71686ZM7.17567 10.5074H9.96624V11.9027H7.17567V10.5074ZM11.3615 10.5074H14.1521V11.9027H11.3615V10.5074ZM7.17567 13.298H9.96624V14.6933H7.17567V13.298ZM11.3615 13.298H14.1521V14.6933H11.3615V13.298Z" fill="white"/>
</svg>
