<?xml version="1.0" encoding="UTF-8"?>
<!DOCTYPE svg PUBLIC "-//W3C//DTD SVG 1.1//EN" "http://www.w3.org/Graphics/SVG/1.1/DTD/svg11.dtd">
<!-- Creator: CorelDRAW -->
<svg xmlns="http://www.w3.org/2000/svg" xml:space="preserve" width="0.333335in" height="0.333335in" style="shape-rendering:geometricPrecision; text-rendering:geometricPrecision; image-rendering:optimizeQuality; fill-rule:evenodd; clip-rule:evenodd"
viewBox="0 0 0.0127808 0.0127808"
 xmlns:xlink="http://www.w3.org/1999/xlink">
 <defs>
  <style type="text/css">
   <![CDATA[
    .fil1 {fill:#75C244}
    .fil0 {fill:#E3E3E3}
   ]]>
  </style>
 </defs>
 <g id="Layer_x0020_1">
  <metadata id="CorelCorpID_0Corel-Layer"/>
  <rect class="fil0" width="0.0127808" height="0.0127808" rx="0.00343571" ry="0.00343571"/>
  <path class="fil1" d="M0.00842352 0.00377611l0 0.00522843 -0.00174276 0 0 -0.00101667 -0.00058087 0 0 0.00101667 -0.00174276 0 0 -0.00522843 0.00406639 0zm-0.00116174 0.00116189l0.00058087 0 0 -0.00058087 -0.00058087 0 0 0.00058087zm-0.00116189 0l0.00058087 0 0 -0.00058087 -0.00058087 0 0 0.00058087zm-0.00116189 0l0.00058087 0 0 -0.00058087 -0.00058087 0 0 0.00058087zm0.00232378 0.00116189l0.00058087 0 0 -0.000581021 -0.00058087 0 0 0.000581021zm-0.00116189 0l0.00058087 0 0 -0.000581021 -0.00058087 0 0 0.000581021zm-0.00116189 0l0.00058087 0 0 -0.000581021 -0.00058087 0 0 0.000581021zm0.00232378 0.00116189l0.00058087 0 0 -0.00058087 -0.00058087 0 0 0.00058087zm-0.00116189 0l0.00058087 0 0 -0.00058087 -0.00058087 0 0 0.00058087zm-0.00116189 0l0.00058087 0 0 -0.00058087 -0.00058087 0 0 0.00058087zm0.00232378 0.00116189l0.00058087 0 0 -0.000581021 -0.00058087 0 0 0.000581021zm-0.00232378 0l0.00058087 0 0 -0.000581021 -0.00058087 0 0 0.000581021zm0.00406654 -0.00522843l-0.00522843 0 0 0.00639032 0.00522843 0 0 -0.00639032z"/>
 </g>
</svg>
