<svg width="27" height="21" viewBox="0 0 27 21" fill="none" xmlns="http://www.w3.org/2000/svg">
<path fill-rule="evenodd" clip-rule="evenodd" d="M13.1301 5.83334C13.1301 6.6968 12.7871 7.52489 12.1766 8.13545C11.566 8.74601 10.7379 9.08902 9.87445 9.08902C9.01099 9.08902 8.18289 8.74601 7.57234 8.13545C6.96178 7.52489 6.61877 6.6968 6.61877 5.83334C6.61877 4.96988 6.96178 4.14179 7.57234 3.53123C8.18289 2.92067 9.01099 2.57767 9.87445 2.57767C10.7379 2.57767 11.566 2.92067 12.1766 3.53123C12.7871 4.14179 13.1301 4.96988 13.1301 5.83334ZM9.87445 10.7169C11.1696 10.7169 12.4118 10.2023 13.3276 9.28651C14.2434 8.37067 14.758 7.12853 14.758 5.83334C14.758 4.53815 14.2434 3.29601 13.3276 2.38018C12.4118 1.46434 11.1696 0.949829 9.87445 0.949829C8.57926 0.949829 7.33712 1.46434 6.42128 2.38018C5.50545 3.29601 4.99093 4.53815 4.99093 5.83334C4.99093 7.12853 5.50545 8.37067 6.42128 9.28651C7.33712 10.2023 8.57926 10.7169 9.87445 10.7169ZM19.6415 18.856C19.6415 20.4839 18.0136 20.4839 18.0136 20.4839H1.73526C1.73526 20.4839 0.107422 20.4839 0.107422 18.856C0.107422 17.2282 1.73526 12.3447 9.87445 12.3447C18.0136 12.3447 19.6415 17.2282 19.6415 18.856ZM18.0136 18.8495C18.012 18.4491 17.7629 17.2445 16.6593 16.1408C15.5979 15.0795 13.6006 13.9725 9.87445 13.9725C6.1467 13.9725 4.15097 15.0795 3.08962 16.1408C1.98595 17.2445 1.73852 18.4491 1.73526 18.8495H18.0136ZM22.0832 5.83334C22.2991 5.83334 22.5061 5.91909 22.6588 6.07173C22.8114 6.22437 22.8971 6.4314 22.8971 6.64726V9.08902H25.3389C25.5548 9.08902 25.7618 9.17477 25.9144 9.32741C26.0671 9.48005 26.1528 9.68707 26.1528 9.90294C26.1528 10.1188 26.0671 10.3258 25.9144 10.4785C25.7618 10.6311 25.5548 10.7169 25.3389 10.7169H22.8971V13.1586C22.8971 13.3745 22.8114 13.5815 22.6588 13.7341C22.5061 13.8868 22.2991 13.9725 22.0832 13.9725C21.8674 13.9725 21.6603 13.8868 21.5077 13.7341C21.3551 13.5815 21.2693 13.3745 21.2693 13.1586V10.7169H18.8276C18.6117 10.7169 18.4047 10.6311 18.252 10.4785C18.0994 10.3258 18.0136 10.1188 18.0136 9.90294C18.0136 9.68707 18.0994 9.48005 18.252 9.32741C18.4047 9.17477 18.6117 9.08902 18.8276 9.08902H21.2693V6.64726C21.2693 6.4314 21.3551 6.22437 21.5077 6.07173C21.6603 5.91909 21.8674 5.83334 22.0832 5.83334Z" fill="white"/>
</svg>
