<svg width="18" height="14" viewBox="0 0 18 14" fill="none" xmlns="http://www.w3.org/2000/svg">
<path d="M5.18062 0.5625V1.44027e-07V0.5625ZM4.06125 1.8L4.6215 1.75163V1.74375L4.06125 1.8ZM7.875 0.5625H8.4375C8.4375 0.413316 8.37824 0.270242 8.27275 0.164753C8.16726 0.0592635 8.02418 1.44027e-07 7.875 1.44027e-07V0.5625ZM7.1145 2.19825L7.4565 2.64488L7.1145 2.19825ZM10.8855 2.19825L10.5435 2.64488L10.8855 2.19825ZM10.125 0.5625V1.44027e-07C9.97582 1.44027e-07 9.83274 0.0592635 9.72725 0.164753C9.62176 0.270242 9.5625 0.413316 9.5625 0.5625H10.125ZM13.9388 1.8L13.3785 1.74375V1.75163L13.9388 1.8ZM13.6125 5.625L13.0522 5.57663C13.0455 5.65427 13.0551 5.73246 13.0802 5.80623C13.1053 5.88001 13.1454 5.94776 13.1981 6.0052C13.2508 6.06263 13.3148 6.1085 13.3862 6.13988C13.4575 6.17126 13.5346 6.18748 13.6125 6.1875V5.625ZM15.6983 4.8645L16.1449 5.2065L15.6983 4.8645ZM15.6983 8.6355L16.1449 8.2935L15.6983 8.6355ZM13.6125 7.875V7.3125C13.5347 7.31254 13.4577 7.32872 13.3864 7.36004C13.3152 7.39135 13.2512 7.43711 13.1986 7.49442C13.1459 7.55173 13.1057 7.61935 13.0805 7.69299C13.0553 7.76663 13.0457 7.8447 13.0522 7.92225L13.6125 7.875ZM13.9388 11.7L13.3785 11.7484V11.7563L13.9388 11.7ZM10.125 12.9375H9.5625C9.5625 13.0867 9.62176 13.2298 9.72725 13.3352C9.83274 13.4407 9.97582 13.5 10.125 13.5V12.9375ZM10.8855 11.3018L10.5435 10.8551L10.8855 11.3018ZM7.1145 11.3018L7.4565 10.8551L7.1145 11.3018ZM7.875 12.9375V13.5C8.02418 13.5 8.16726 13.4407 8.27275 13.3352C8.37824 13.2298 8.4375 13.0867 8.4375 12.9375H7.875ZM5.18062 12.9375V12.375V12.9375ZM4.06125 11.7L4.6215 11.7563V11.7484L4.06125 11.7ZM4.3875 7.875L4.94775 7.92225C4.95429 7.8447 4.94466 7.76663 4.91948 7.69299C4.89429 7.61935 4.8541 7.55173 4.80144 7.49442C4.74879 7.43711 4.68481 7.39135 4.61355 7.36004C4.5423 7.32872 4.46533 7.31254 4.3875 7.3125V7.875ZM2.30175 8.6355L1.85513 8.2935L2.30175 8.6355ZM2.30175 4.8645L1.85513 5.2065L2.30175 4.8645ZM4.3875 5.625V6.1875C4.46543 6.18748 4.54251 6.17126 4.61384 6.13988C4.68518 6.1085 4.74921 6.06263 4.80189 6.0052C4.85456 5.94776 4.89473 5.88001 4.91984 5.80623C4.94495 5.73246 4.95445 5.65427 4.94775 5.57663L4.3875 5.625ZM5.18062 1.44027e-07C4.94474 -8.14497e-05 4.71146 0.049292 4.49583 0.144934C4.2802 0.240577 4.08702 0.380364 3.92875 0.555274C3.77049 0.730185 3.65065 0.936334 3.57697 1.16042C3.50329 1.3845 3.47741 1.62155 3.501 1.85625L4.62037 1.74375C4.61251 1.66548 4.62115 1.58644 4.64573 1.51172C4.67031 1.437 4.71029 1.36826 4.76308 1.30995C4.81588 1.25164 4.88032 1.20506 4.95224 1.1732C5.02416 1.14134 5.10196 1.12492 5.18062 1.125V1.44027e-07ZM7.875 1.44027e-07H5.18062V1.125H7.875V1.44027e-07ZM8.4375 0.99225V0.5625H7.3125V0.99225H8.4375ZM7.4565 2.64488C7.87837 2.322 8.4375 1.77525 8.4375 0.99225H7.3125C7.3125 1.21163 7.14712 1.46475 6.7725 1.75163L7.4565 2.64488ZM7.3125 2.8125L7.31362 2.80575C7.31695 2.79586 7.32149 2.78641 7.32713 2.77763C7.36189 2.72593 7.40572 2.68096 7.4565 2.64488L6.7725 1.75163C6.46425 1.98788 6.1875 2.34563 6.1875 2.8125H7.3125ZM9 3.375C8.44763 3.375 7.974 3.2625 7.66125 3.105C7.54637 3.05283 7.4428 2.97868 7.35638 2.88675C7.33772 2.86587 7.32287 2.84188 7.3125 2.81588V2.8125H6.1875C6.1875 3.4515 6.69037 3.87788 7.15725 4.11075C7.65788 4.36163 8.31038 4.5 9 4.5V3.375ZM10.6875 2.8125V2.81588C10.6772 2.84228 10.6624 2.86666 10.6436 2.88788C10.5574 2.97929 10.4543 3.05303 10.3399 3.105C10.0238 3.2625 9.55125 3.375 9 3.375V4.5C9.68962 4.5 10.3421 4.36163 10.8427 4.11075C11.3096 3.87788 11.8125 3.4515 11.8125 2.8125H10.6875ZM10.5435 2.64375C10.6166 2.7 10.6549 2.74725 10.6729 2.77763C10.6819 2.79225 10.6841 2.80125 10.6864 2.80575L10.6875 2.8125H11.8125C11.8125 2.34563 11.5357 1.98788 11.2275 1.75163L10.5435 2.64488V2.64375ZM9.5625 0.993375C9.5625 1.77638 10.1216 2.32313 10.5435 2.646L11.2275 1.75275C10.8529 1.46588 10.6875 1.21275 10.6875 0.993375H9.5625ZM9.5625 0.563625V0.993375H10.6875V0.5625H9.5625V0.563625ZM12.8194 0.00112506H10.125V1.12613H12.8194V1.44027e-07V0.00112506ZM14.499 1.85738C14.5228 1.62258 14.497 1.38542 14.4234 1.1612C14.3498 0.936978 14.23 0.730688 14.0717 0.555651C13.9134 0.380615 13.7202 0.240725 13.5045 0.145015C13.2888 0.0493044 13.0554 -9.73518e-05 12.8194 1.44027e-07V1.125C12.898 1.12492 12.9758 1.14134 13.0478 1.1732C13.1197 1.20506 13.1841 1.25164 13.2369 1.30995C13.2897 1.36826 13.3297 1.437 13.3543 1.51172C13.3789 1.58644 13.3875 1.66548 13.3796 1.74375L14.499 1.85625V1.85738ZM14.1727 5.67338L14.499 1.84838L13.3785 1.75275L13.0522 5.57775L14.1727 5.67338ZM14.4923 5.06363H13.6125V6.18863H14.4923V5.06363ZM15.2516 4.52363C14.9648 4.89825 14.7116 5.06363 14.4923 5.06363V6.18863C15.2752 6.18863 15.822 5.6295 16.1449 5.20763L15.2516 4.52363ZM16.3125 3.93863C15.8456 3.93863 15.4879 4.21538 15.2516 4.52363L16.1449 5.20763C16.181 5.15685 16.2259 5.11302 16.2776 5.07825C16.2864 5.07261 16.2959 5.06808 16.3057 5.06475L16.3125 5.0625V3.9375V3.93863ZM18 6.75C18 6.06038 17.8616 5.40788 17.6108 4.90725C17.3779 4.44038 16.9515 3.9375 16.3125 3.9375V5.0625H16.3159L16.3271 5.06588C16.3487 5.07661 16.3688 5.09024 16.3867 5.10638C16.4786 5.19247 16.5527 5.29564 16.605 5.41013C16.7625 5.72513 16.875 6.19763 16.875 6.75H18ZM16.3125 9.5625C16.9515 9.5625 17.3779 9.05963 17.6108 8.59275C17.8616 8.09212 18 7.43963 18 6.75H16.875C16.875 7.30238 16.7625 7.776 16.605 8.08875C16.5528 8.20363 16.4787 8.30721 16.3867 8.39363C16.3659 8.41226 16.3419 8.42711 16.3159 8.4375H16.3125V9.5625ZM15.2516 8.9775C15.4879 9.28575 15.8456 9.5625 16.3125 9.5625V8.4375L16.3057 8.43638C16.2959 8.43305 16.2864 8.42851 16.2776 8.42288C16.2259 8.38813 16.1809 8.3443 16.1449 8.2935L15.2516 8.9775ZM14.4923 8.4375C14.7116 8.4375 14.9648 8.60288 15.2516 8.9775L16.1449 8.2935C15.822 7.87163 15.2752 7.3125 14.4923 7.3125V8.4375ZM13.6125 8.4375H14.4923V7.3125H13.6125V8.4375ZM14.499 11.6528L14.1727 7.82775L13.0522 7.92225L13.3785 11.7484L14.499 11.6528ZM12.8194 13.5C13.0553 13.5001 13.2885 13.4507 13.5042 13.3551C13.7198 13.2594 13.913 13.1196 14.0712 12.9447C14.2295 12.7698 14.3494 12.5637 14.423 12.3396C14.4967 12.1155 14.5226 11.8785 14.499 11.6438L13.3796 11.7563C13.3875 11.8345 13.3789 11.9136 13.3543 11.9883C13.3297 12.063 13.2897 12.1317 13.2369 12.19C13.1841 12.2484 13.1197 12.2949 13.0478 12.3268C12.9758 12.3587 12.898 12.3751 12.8194 12.375V13.5ZM10.125 13.5H12.8194V12.375H10.125V13.5ZM10.6875 12.9375V12.5078H9.5625V12.9375H10.6875ZM10.6875 12.5078C10.6875 12.2884 10.8529 12.0353 11.2275 11.7484L10.5435 10.8551C10.1216 11.178 9.5625 11.7248 9.5625 12.5078H10.6875ZM11.2275 11.7484C11.5357 11.5121 11.8125 11.1544 11.8125 10.6875H10.6875L10.6864 10.6943C10.683 10.7041 10.6785 10.7136 10.6729 10.7224C10.6381 10.7741 10.5943 10.819 10.5435 10.8551L11.2275 11.7484ZM11.8125 10.6875C11.8125 10.0485 11.3096 9.62213 10.8427 9.38925C10.3421 9.13838 9.68962 9 9 9V10.125C9.5535 10.125 10.026 10.2375 10.3387 10.395C10.4962 10.4738 10.593 10.5525 10.6436 10.6133C10.6623 10.6341 10.6771 10.6581 10.6875 10.6841V10.6875H11.8125ZM9 9C8.31038 9 7.65788 9.13838 7.15725 9.38925C6.69037 9.62213 6.1875 10.0485 6.1875 10.6875H7.3125V10.6841L7.31587 10.6729C7.32631 10.6511 7.33996 10.631 7.35638 10.6133C7.44245 10.5214 7.54563 10.4473 7.66012 10.395C7.97625 10.2375 8.44875 10.125 9 10.125V9ZM6.1875 10.6875C6.1875 11.1544 6.46425 11.5121 6.7725 11.7484L7.4565 10.8551C7.40572 10.819 7.36189 10.7741 7.32713 10.7224C7.32149 10.7136 7.31695 10.7041 7.31362 10.6943L7.3125 10.6875H6.1875ZM6.7725 11.7484C7.14712 12.0353 7.3125 12.2884 7.3125 12.5078H8.4375C8.4375 11.7248 7.87837 11.178 7.4565 10.8551L6.7725 11.7484ZM7.3125 12.5078V12.9375H8.4375V12.5078H7.3125ZM5.18062 13.5H7.875V12.375H5.18062V13.5ZM3.501 11.6438C3.47741 11.8785 3.50329 12.1155 3.57697 12.3396C3.65065 12.5637 3.77049 12.7698 3.92875 12.9447C4.08702 13.1196 4.2802 13.2594 4.49583 13.3551C4.71146 13.4507 4.94474 13.5001 5.18062 13.5V12.375C5.10196 12.3751 5.02416 12.3587 4.95224 12.3268C4.88032 12.2949 4.81588 12.2484 4.76308 12.19C4.71029 12.1317 4.67031 12.063 4.64573 11.9883C4.62115 11.9136 4.61251 11.8345 4.62037 11.7563L3.501 11.6438ZM3.82725 7.82663L3.501 11.6528L4.6215 11.7484L4.94775 7.92338L3.82725 7.82663ZM3.50775 8.4375H4.3875V7.3125H3.50775V8.4375ZM2.74838 8.9775C3.03525 8.60288 3.28838 8.4375 3.50775 8.4375V7.3125C2.72475 7.3125 2.178 7.87163 1.85513 8.2935L2.74838 8.9775ZM1.6875 9.5625C2.15438 9.5625 2.51213 9.28575 2.74838 8.9775L1.85513 8.2935C1.81904 8.34428 1.77407 8.38811 1.72238 8.42288C1.7136 8.42852 1.70415 8.43306 1.69425 8.43638L1.6875 8.4375V9.5625ZM0 6.75C0 7.43963 0.138375 8.09212 0.38925 8.59275C0.622125 9.05963 1.0485 9.5625 1.6875 9.5625V8.4375H1.68412C1.65772 8.42725 1.63334 8.41239 1.61212 8.39363C1.52071 8.30744 1.44697 8.20426 1.395 8.08988C1.2375 7.77375 1.125 7.30125 1.125 6.75H0ZM1.6875 3.9375C1.0485 3.9375 0.622125 4.44038 0.38925 4.90725C0.138375 5.40788 0 6.06038 0 6.75H1.125C1.125 6.1965 1.2375 5.724 1.395 5.41125C1.44717 5.29637 1.52132 5.1928 1.61325 5.10638C1.63413 5.08772 1.65812 5.07287 1.68412 5.0625H1.6875V3.9375ZM2.74838 4.5225C2.51213 4.21425 2.15438 3.9375 1.6875 3.9375V5.0625L1.69425 5.06363C1.70415 5.06694 1.7136 5.07148 1.72238 5.07713C1.75275 5.09513 1.79888 5.13338 1.85513 5.2065L2.74838 4.5225ZM3.50775 5.0625C3.28838 5.0625 3.03525 4.89713 2.74838 4.5225L1.85513 5.2065C2.178 5.62838 2.72475 6.1875 3.50775 6.1875V5.0625ZM4.3875 5.0625H3.50775V6.1875H4.3875V5.0625ZM3.501 1.84725L3.82725 5.67225L4.94775 5.57663L4.6215 1.75163L3.501 1.84725Z" fill="#75C244"/>
</svg>
