<svg width="27" height="21" viewBox="0 0 27 21" fill="none" xmlns="http://www.w3.org/2000/svg">
<path d="M7.86533 1.76375V0.949829V1.76375ZM6.24563 3.55437L7.0563 3.48437V3.47298L6.24563 3.55437ZM11.764 1.76375H12.5779C12.5779 1.54788 12.4922 1.34086 12.3395 1.18822C12.1869 1.03558 11.9799 0.949829 11.764 0.949829V1.76375ZM10.6636 4.13062L11.1584 4.77688L10.6636 4.13062ZM16.1201 4.13062L15.6252 4.77688L16.1201 4.13062ZM15.0197 1.76375V0.949829C14.8038 0.949829 14.5968 1.03558 14.4441 1.18822C14.2915 1.34086 14.2058 1.54788 14.2058 1.76375H15.0197ZM20.538 3.55437L19.7274 3.47298V3.48437L20.538 3.55437ZM20.066 9.08902L19.2553 9.01902C19.2456 9.13137 19.2594 9.2445 19.2957 9.35126C19.332 9.45801 19.3901 9.55605 19.4664 9.63915C19.5426 9.72226 19.6352 9.78862 19.7385 9.83403C19.8417 9.87944 19.9532 9.9029 20.066 9.90294V9.08902ZM23.084 7.9886L23.7302 8.48346L23.084 7.9886ZM23.084 13.4451L23.7302 12.9502L23.084 13.4451ZM20.066 12.3447V11.5308C19.9534 11.5308 19.842 11.5542 19.7389 11.5996C19.6358 11.6449 19.5432 11.7111 19.467 11.794C19.3908 11.8769 19.3327 11.9748 19.2962 12.0813C19.2598 12.1879 19.2459 12.3008 19.2553 12.4131L20.066 12.3447ZM20.538 17.8793L19.7274 17.9493V17.9607L20.538 17.8793ZM15.0197 19.67H14.2058C14.2058 19.8858 14.2915 20.0928 14.4441 20.2455C14.5968 20.3981 14.8038 20.4839 15.0197 20.4839V19.67ZM16.1201 17.3031L15.6252 16.6568L16.1201 17.3031ZM10.6636 17.3031L11.1584 16.6568L10.6636 17.3031ZM11.764 19.67V20.4839C11.9799 20.4839 12.1869 20.3981 12.3395 20.2455C12.4922 20.0928 12.5779 19.8858 12.5779 19.67H11.764ZM7.86533 19.67V18.856V19.67ZM6.24563 17.8793L7.0563 17.9607V17.9493L6.24563 17.8793ZM6.71771 12.3447L7.52837 12.4131C7.53783 12.3008 7.5239 12.1879 7.48746 12.0813C7.45102 11.9748 7.39286 11.8769 7.31667 11.794C7.24047 11.7111 7.1479 11.6449 7.0448 11.5996C6.9417 11.5542 6.83032 11.5308 6.71771 11.5308V12.3447ZM3.6997 13.4451L3.05344 12.9502L3.6997 13.4451ZM3.6997 7.9886L3.05344 8.48346L3.6997 7.9886ZM6.71771 9.08902V9.90294C6.83047 9.9029 6.942 9.87944 7.04522 9.83403C7.14844 9.78862 7.24109 9.72226 7.31731 9.63915C7.39353 9.55605 7.45165 9.45801 7.48798 9.35126C7.52431 9.2445 7.53807 9.13137 7.52837 9.01902L6.71771 9.08902ZM7.86533 0.949829C7.52401 0.949711 7.18646 1.02115 6.87445 1.15954C6.56245 1.29794 6.28292 1.5002 6.05392 1.75329C5.82491 2.00638 5.6515 2.30467 5.54489 2.62892C5.43829 2.95316 5.40084 3.29615 5.43497 3.63576L7.05467 3.47298C7.04329 3.35973 7.05578 3.24535 7.09135 3.13723C7.12692 3.02911 7.18477 2.92966 7.26117 2.84529C7.33756 2.76091 7.4308 2.6935 7.53487 2.64741C7.63894 2.60131 7.75151 2.57755 7.86533 2.57767V0.949829ZM11.764 0.949829H7.86533V2.57767H11.764V0.949829ZM12.5779 2.38558V1.76375H10.9501V2.38558H12.5779ZM11.1584 4.77688C11.7689 4.30969 12.5779 3.51856 12.5779 2.38558H10.9501C10.9501 2.70301 10.7108 3.06927 10.1687 3.48437L11.1584 4.77688ZM10.9501 5.01942L10.9517 5.00966C10.9565 4.99534 10.9631 4.98167 10.9712 4.96896C11.0215 4.89416 11.085 4.82909 11.1584 4.77688L10.1687 3.48437C9.72269 3.82622 9.32225 4.34387 9.32225 5.01942H10.9501ZM13.3918 5.83334C12.5926 5.83334 11.9073 5.67056 11.4547 5.44266C11.2885 5.36717 11.1386 5.25989 11.0136 5.12686C10.9866 5.09665 10.9651 5.06194 10.9501 5.02431V5.01942H9.32225C9.32225 5.94404 10.0499 6.56099 10.7254 6.89795C11.4498 7.26096 12.394 7.46118 13.3918 7.46118V5.83334ZM15.8336 5.01942V5.02431C15.8188 5.06251 15.7973 5.09779 15.7701 5.12849C15.6454 5.26076 15.4961 5.36747 15.3306 5.44266C14.8732 5.67056 14.1895 5.83334 13.3918 5.83334V7.46118C14.3897 7.46118 15.3338 7.26096 16.0582 6.89795C16.7338 6.56099 17.4614 5.94404 17.4614 5.01942H15.8336ZM15.6252 4.77525C15.731 4.85664 15.7864 4.92501 15.8124 4.96896C15.8255 4.99012 15.8287 5.00314 15.832 5.00966L15.8336 5.01942H17.4614C17.4614 4.34387 17.061 3.82622 16.615 3.48437L15.6252 4.77688V4.77525ZM14.2058 2.38721C14.2058 3.52018 15.0148 4.31131 15.6252 4.7785L16.615 3.486C16.0729 3.0709 15.8336 2.70464 15.8336 2.38721H14.2058ZM14.2058 1.76538V2.38721H15.8336V1.76375H14.2058V1.76538ZM18.9183 0.951457H15.0197V2.57929H18.9183V0.949829V0.951457ZM21.3487 3.63739C21.3831 3.29765 21.3458 2.95448 21.2393 2.63004C21.1328 2.3056 20.9595 2.00711 20.7304 1.75384C20.5014 1.50057 20.2218 1.29815 19.9097 1.15966C19.5975 1.02117 19.2598 0.949688 18.9183 0.949829V2.57767C19.0322 2.57755 19.1447 2.60131 19.2488 2.64741C19.3529 2.6935 19.4461 2.76091 19.5225 2.84529C19.5989 2.92966 19.6568 3.02911 19.6923 3.13723C19.7279 3.24535 19.7404 3.35973 19.729 3.47298L21.3487 3.63576V3.63739ZM20.8766 9.15901L21.3487 3.62437L19.7274 3.486L19.2553 9.02065L20.8766 9.15901ZM21.3389 8.27673H20.066V9.90456H21.3389V8.27673ZM22.4377 7.49536C22.0226 8.03743 21.6564 8.27673 21.3389 8.27673V9.90456C22.4719 9.90456 23.263 9.09553 23.7302 8.48509L22.4377 7.49536ZM23.9728 6.64889C23.2972 6.64889 22.7796 7.04934 22.4377 7.49536L23.7302 8.48509C23.7824 8.41161 23.8475 8.34819 23.9223 8.29789C23.935 8.28973 23.9487 8.28317 23.963 8.27835L23.9728 8.2751V6.64726V6.64889ZM26.4145 10.7169C26.4145 9.71899 26.2143 8.77484 25.8513 8.05046C25.5143 7.3749 24.8974 6.64726 23.9728 6.64726V8.2751H23.9777L23.9939 8.27998C24.0252 8.29552 24.0542 8.31523 24.0802 8.33858C24.2131 8.46315 24.3203 8.61245 24.396 8.7781C24.6239 9.23389 24.7867 9.91759 24.7867 10.7169H26.4145ZM23.9728 14.7864C24.8974 14.7864 25.5143 14.0588 25.8513 13.3833C26.2143 12.6589 26.4145 11.7147 26.4145 10.7169H24.7867C24.7867 11.5161 24.6239 12.2014 24.396 12.654C24.3205 12.8202 24.2132 12.9701 24.0802 13.0951C24.05 13.1221 24.0153 13.1436 23.9777 13.1586H23.9728V14.7864ZM22.4377 13.94C22.7796 14.386 23.2972 14.7864 23.9728 14.7864V13.1586L23.963 13.157C23.9487 13.1522 23.935 13.1456 23.9223 13.1374C23.8475 13.0872 23.7824 13.0237 23.7302 12.9502L22.4377 13.94ZM21.3389 13.1586C21.6564 13.1586 22.0226 13.3979 22.4377 13.94L23.7302 12.9502C23.263 12.3398 22.4719 11.5308 21.3389 11.5308V13.1586ZM20.066 13.1586H21.3389V11.5308H20.066V13.1586ZM21.3487 17.811L20.8766 12.2763L19.2553 12.4131L19.7274 17.9493L21.3487 17.811ZM18.9183 20.4839C19.2597 20.484 19.5972 20.4126 19.9092 20.2742C20.2212 20.1358 20.5008 19.9335 20.7298 19.6804C20.9588 19.4273 21.1322 19.129 21.2388 18.8048C21.3454 18.4805 21.3828 18.1376 21.3487 17.7979L19.729 17.9607C19.7404 18.074 19.7279 18.1884 19.6923 18.2965C19.6568 18.4046 19.5989 18.5041 19.5225 18.5884C19.4461 18.6728 19.3529 18.7402 19.2488 18.7863C19.1447 18.8324 19.0322 18.8562 18.9183 18.856V20.4839ZM15.0197 20.4839H18.9183V18.856H15.0197V20.4839ZM15.8336 19.67V19.0481H14.2058V19.67H15.8336ZM15.8336 19.0481C15.8336 18.7307 16.0729 18.3644 16.615 17.9493L15.6252 16.6568C15.0148 17.124 14.2058 17.9152 14.2058 19.0481H15.8336ZM16.615 17.9493C17.061 17.6075 17.4614 17.0898 17.4614 16.4143H15.8336L15.832 16.4241C15.8272 16.4384 15.8206 16.452 15.8124 16.4647C15.7621 16.5395 15.6987 16.6046 15.6252 16.6568L16.615 17.9493ZM17.4614 16.4143C17.4614 15.4897 16.7338 14.8727 16.0582 14.5358C15.3338 14.1728 14.3897 13.9725 13.3918 13.9725V15.6004C14.1927 15.6004 14.8764 15.7632 15.329 15.991C15.5569 16.105 15.6969 16.2189 15.7701 16.3068C15.7971 16.3371 15.8186 16.3718 15.8336 16.4094V16.4143H17.4614ZM13.3918 13.9725C12.394 13.9725 11.4498 14.1728 10.7254 14.5358C10.0499 14.8727 9.32225 15.4897 9.32225 16.4143H10.9501V16.4094L10.955 16.3931C10.9701 16.3616 10.9898 16.3325 11.0136 16.3068C11.1381 16.174 11.2874 16.0667 11.4531 15.991C11.9105 15.7632 12.5942 15.6004 13.3918 15.6004V13.9725ZM9.32225 16.4143C9.32225 17.0898 9.72269 17.6075 10.1687 17.9493L11.1584 16.6568C11.085 16.6046 11.0215 16.5395 10.9712 16.4647C10.9631 16.452 10.9565 16.4384 10.9517 16.4241L10.9501 16.4143H9.32225ZM10.1687 17.9493C10.7108 18.3644 10.9501 18.7307 10.9501 19.0481H12.5779C12.5779 17.9152 11.7689 17.124 11.1584 16.6568L10.1687 17.9493ZM10.9501 19.0481V19.67H12.5779V19.0481H10.9501ZM7.86533 20.4839H11.764V18.856H7.86533V20.4839ZM5.43497 17.7979C5.40084 18.1376 5.43829 18.4805 5.54489 18.8048C5.6515 19.129 5.82491 19.4273 6.05392 19.6804C6.28292 19.9335 6.56245 20.1358 6.87445 20.2742C7.18646 20.4126 7.52401 20.484 7.86533 20.4839V18.856C7.75151 18.8562 7.63894 18.8324 7.53487 18.7863C7.4308 18.7402 7.33756 18.6728 7.26117 18.5884C7.18477 18.5041 7.12692 18.4046 7.09135 18.2965C7.05578 18.1884 7.04329 18.074 7.05467 17.9607L5.43497 17.7979ZM5.90704 12.2747L5.43497 17.811L7.0563 17.9493L7.52837 12.4147L5.90704 12.2747ZM5.44474 13.1586H6.71771V11.5308H5.44474V13.1586ZM4.34595 13.94C4.76105 13.3979 5.12731 13.1586 5.44474 13.1586V11.5308C4.31176 11.5308 3.52063 12.3398 3.05344 12.9502L4.34595 13.94ZM2.8109 14.7864C3.48645 14.7864 4.0041 14.386 4.34595 13.94L3.05344 12.9502C3.00123 13.0237 2.93616 13.0871 2.86136 13.1374C2.84866 13.1456 2.83499 13.1522 2.82066 13.157L2.8109 13.1586V14.7864ZM0.369141 10.7169C0.369141 11.7147 0.569365 12.6589 0.932372 13.3833C1.26933 14.0588 1.88629 14.7864 2.8109 14.7864V13.1586H2.80601C2.76781 13.1438 2.73253 13.1223 2.70183 13.0951C2.56956 12.9704 2.46285 12.8211 2.38766 12.6556C2.15976 12.1982 1.99698 11.5145 1.99698 10.7169H0.369141ZM2.8109 6.64726C1.88629 6.64726 1.26933 7.3749 0.932372 8.05046C0.569365 8.77484 0.369141 9.71899 0.369141 10.7169H1.99698C1.99698 9.91596 2.15976 9.23227 2.38766 8.77973C2.46315 8.61349 2.57043 8.46363 2.70346 8.33858C2.73367 8.31159 2.76838 8.29011 2.80601 8.2751H2.8109V6.64726ZM4.34595 7.49374C4.0041 7.04771 3.48645 6.64726 2.8109 6.64726V8.2751L2.82066 8.27673C2.83499 8.28153 2.84866 8.28809 2.86136 8.29626C2.90531 8.32231 2.97205 8.37765 3.05344 8.48346L4.34595 7.49374ZM5.44474 8.2751C5.12731 8.2751 4.76105 8.03581 4.34595 7.49374L3.05344 8.48346C3.52063 9.0939 4.31176 9.90294 5.44474 9.90294V8.2751ZM6.71771 8.2751H5.44474V9.90294H6.71771V8.2751ZM5.43497 3.62274L5.90704 9.15739L7.52837 9.01902L7.0563 3.48437L5.43497 3.62274Z" fill="white"/>
</svg>
