<svg width="24" height="41" viewBox="0 0 24 41" fill="none" xmlns="http://www.w3.org/2000/svg">
<path d="M8.33 39.5193C8.09667 39.7927 7.82333 39.9993 7.51 40.1393C7.20333 40.2793 6.86667 40.3493 6.5 40.3493C6.02 40.3493 5.58 40.2393 5.18 40.0193C4.78 39.806 4.32333 39.4327 3.81 38.8993C3.16333 38.846 2.58333 38.6593 2.07 38.3393C1.55667 38.0127 1.15667 37.5893 0.87 37.0693C0.583333 36.5427 0.44 35.9593 0.44 35.3193C0.44 34.6393 0.603333 34.026 0.93 33.4793C1.25667 32.926 1.70667 32.496 2.28 32.1893C2.85333 31.876 3.49667 31.7193 4.21 31.7193C4.92333 31.7193 5.56667 31.876 6.14 32.1893C6.71333 32.496 7.16333 32.9227 7.49 33.4693C7.81667 34.016 7.98 34.6327 7.98 35.3193C7.98 35.8727 7.87 36.386 7.65 36.8593C7.43 37.326 7.12333 37.726 6.73 38.0593C6.33667 38.386 5.88 38.6227 5.36 38.7693C5.55333 38.976 5.74333 39.126 5.93 39.2193C6.11667 39.3127 6.31667 39.3593 6.53 39.3593C6.99 39.3593 7.39 39.1727 7.73 38.7993L8.33 39.5193ZM1.75 35.3193C1.75 35.786 1.85667 36.2093 2.07 36.5893C2.28333 36.9627 2.57667 37.256 2.95 37.4693C3.32333 37.676 3.74333 37.7793 4.21 37.7793C4.67667 37.7793 5.09667 37.676 5.47 37.4693C5.84333 37.256 6.13667 36.9627 6.35 36.5893C6.56333 36.2093 6.67 35.786 6.67 35.3193C6.67 34.8527 6.56333 34.4327 6.35 34.0593C6.13667 33.6793 5.84333 33.386 5.47 33.1793C5.09667 32.966 4.67667 32.8593 4.21 32.8593C3.74333 32.8593 3.32333 32.966 2.95 33.1793C2.57667 33.386 2.28333 33.6793 2.07 34.0593C1.85667 34.4327 1.75 34.8527 1.75 35.3193ZM12.268 33.4193C12.9413 33.4193 13.4813 33.616 13.888 34.0093C14.2946 34.4027 14.498 34.986 14.498 35.7593V38.8193H13.248V35.9193C13.248 35.4527 13.138 35.1027 12.918 34.8693C12.698 34.6293 12.3846 34.5093 11.978 34.5093C11.518 34.5093 11.1546 34.6493 10.888 34.9293C10.6213 35.2027 10.488 35.5993 10.488 36.1193V38.8193H9.23797V33.4793H10.428V34.1693C10.6346 33.9227 10.8946 33.736 11.208 33.6093C11.5213 33.4827 11.8746 33.4193 12.268 33.4193ZM20.7437 37.1993H17.2437L16.5537 38.8193H15.2137L18.3637 31.8193H19.6437L22.8037 38.8193H21.4437L20.7437 37.1993ZM20.3137 36.1793L18.9937 33.1193L17.6837 36.1793H20.3137Z" fill="#75C244"/>
<path d="M15.1641 14.2148C14.9699 14.2148 14.8125 14.3722 14.8125 14.5664V16.9922C14.8125 17.9614 14.0239 18.75 13.0547 18.75H9.25894C9.06484 18.75 8.90752 18.9073 8.90737 19.1013L8.90688 19.8003L8.06777 18.9612C8.01346 18.8365 7.88914 18.75 7.74536 18.75H5.46094C4.49168 18.75 3.70312 17.9614 3.70312 16.9922V11.5781C3.70312 10.6089 4.49168 9.82031 5.46094 9.82031H9.01172C9.20585 9.82031 9.36328 9.66292 9.36328 9.46875C9.36328 9.27458 9.20585 9.11719 9.01172 9.11719H5.46094C4.10398 9.11719 3 10.2212 3 11.5781V16.9922C3 18.3491 4.10398 19.4531 5.46094 19.4531H7.56532L9.00922 20.897C9.07648 20.9643 9.16637 21 9.25788 21C9.30313 21 9.3488 20.9912 9.39221 20.9733C9.52359 20.9189 9.60927 20.7908 9.60938 20.6487L9.61022 19.4531H13.0547C14.4116 19.4531 15.5156 18.3491 15.5156 16.9922V14.5664C15.5156 14.3722 15.3582 14.2148 15.1641 14.2148Z" fill="#75C244"/>
<path d="M15.8902 3H15.0004C12.1829 3 9.89062 5.29226 9.89062 8.10982C9.89062 10.9274 12.1829 13.2196 15.0004 13.2196H15.8902C16.3299 13.2196 16.7652 13.1637 17.1871 13.0534L18.5015 14.367C18.5687 14.4342 18.6586 14.4699 18.7501 14.4699C18.7954 14.4699 18.8411 14.4611 18.8846 14.4431C19.0159 14.3887 19.1016 14.2605 19.1016 14.1183V12.0843C19.6581 11.6337 20.1203 11.0644 20.4447 10.4284C20.8132 9.70609 21 8.92601 21 8.10982C21 5.29226 18.7077 3 15.8902 3ZM18.5385 11.6321C18.4503 11.6985 18.3984 11.8025 18.3984 11.9129V13.2699L17.5381 12.4101C17.4712 12.3432 17.3814 12.3072 17.2896 12.3072C17.2551 12.3072 17.2203 12.3123 17.1864 12.3227C16.7679 12.4513 16.3318 12.5165 15.8902 12.5165H15.0004C12.5706 12.5165 10.5938 10.5397 10.5938 8.10982C10.5938 5.67996 12.5706 3.70312 15.0004 3.70312H15.8902C18.3201 3.70312 20.2969 5.67996 20.2969 8.10982C20.2969 9.50661 19.656 10.7904 18.5385 11.6321Z" fill="#75C244"/>
<path d="M10.0977 15.6758H7.89453L7.43359 17H6.40625L8.55469 11.3125H9.44141L11.5938 17H10.5625L10.0977 15.6758ZM8.17188 14.8789H9.82031L8.99609 12.5195L8.17188 14.8789Z" fill="#75C244"/>
<path d="M17.8359 8.30469C17.8359 8.84375 17.75 9.3112 17.5781 9.70703C17.4089 10.1003 17.1706 10.4128 16.8633 10.6445L17.8398 11.4062L17.1992 11.9844L15.9883 11.0273C15.8294 11.0612 15.6589 11.0781 15.4766 11.0781C15.0182 11.0781 14.6081 10.9661 14.2461 10.7422C13.8867 10.5156 13.6081 10.194 13.4102 9.77734C13.2148 9.36068 13.1159 8.88021 13.1133 8.33594V8.01562C13.1133 7.46094 13.2109 6.97135 13.4062 6.54688C13.6042 6.1224 13.8815 5.79818 14.2383 5.57422C14.5977 5.34766 15.0078 5.23438 15.4688 5.23438C15.9375 5.23437 16.3503 5.34635 16.707 5.57031C17.0664 5.79167 17.3438 6.11198 17.5391 6.53125C17.7344 6.94792 17.8333 7.43359 17.8359 7.98828V8.30469ZM16.8438 8.00781C16.8438 7.36719 16.724 6.88151 16.4844 6.55078C16.2448 6.22005 15.9062 6.05469 15.4688 6.05469C15.0443 6.05469 14.7109 6.22266 14.4688 6.55859C14.2292 6.89193 14.1068 7.36328 14.1016 7.97266V8.30469C14.1016 8.91927 14.2214 9.39974 14.4609 9.74609C14.7031 10.0924 15.0417 10.2656 15.4766 10.2656C15.9167 10.2656 16.2539 10.099 16.4883 9.76562C16.7253 9.43229 16.8438 8.94531 16.8438 8.30469V8.00781Z" fill="#75C244"/>
<rect x="0.5" y="0.5" width="23" height="23" rx="3.5" stroke="#75C244"/>
</svg>
