<svg width="27" height="41" viewBox="0 0 27 41" fill="none" xmlns="http://www.w3.org/2000/svg">
<path d="M5.52 38.8193L4.09 36.7693C4.03 36.776 3.94 36.7793 3.82 36.7793H2.24V38.8193H0.94V31.8193H3.82C4.42667 31.8193 4.95333 31.9193 5.4 32.1193C5.85333 32.3193 6.2 32.606 6.44 32.9793C6.68 33.3527 6.8 33.796 6.8 34.3093C6.8 34.836 6.67 35.2893 6.41 35.6693C6.15667 36.0493 5.79 36.3327 5.31 36.5193L6.92 38.8193H5.52ZM5.49 34.3093C5.49 33.8627 5.34333 33.5193 5.05 33.2793C4.75667 33.0393 4.32667 32.9193 3.76 32.9193H2.24V35.7093H3.76C4.32667 35.7093 4.75667 35.5893 5.05 35.3493C5.34333 35.1027 5.49 34.756 5.49 34.3093ZM10.1256 33.4193C10.9123 33.4193 11.5123 33.6093 11.9256 33.9893C12.3456 34.3627 12.5556 34.9293 12.5556 35.6893V38.8193H11.3756V38.1693C11.2223 38.4027 11.0023 38.5827 10.7156 38.7093C10.4356 38.8293 10.0956 38.8893 9.69563 38.8893C9.29563 38.8893 8.94563 38.8227 8.64563 38.6893C8.34563 38.5493 8.11229 38.3593 7.94563 38.1193C7.78563 37.8727 7.70563 37.596 7.70563 37.2893C7.70563 36.8093 7.88229 36.426 8.23563 36.1393C8.59563 35.846 9.15896 35.6993 9.92563 35.6993H11.3056V35.6193C11.3056 35.246 11.1923 34.9593 10.9656 34.7593C10.7456 34.5593 10.4156 34.4593 9.97563 34.4593C9.67563 34.4593 9.37896 34.506 9.08563 34.5993C8.79896 34.6927 8.55563 34.8227 8.35563 34.9893L7.86563 34.0793C8.14563 33.866 8.48229 33.7027 8.87563 33.5893C9.26896 33.476 9.68563 33.4193 10.1256 33.4193ZM9.95563 37.9793C10.269 37.9793 10.5456 37.9093 10.7856 37.7693C11.0323 37.6227 11.2056 37.416 11.3056 37.1493V36.5293H10.0156C9.29563 36.5293 8.93563 36.766 8.93563 37.2393C8.93563 37.466 9.02563 37.646 9.20563 37.7793C9.38563 37.9127 9.63563 37.9793 9.95563 37.9793ZM17.1898 33.4193C17.8632 33.4193 18.4032 33.616 18.8098 34.0093C19.2165 34.4027 19.4198 34.986 19.4198 35.7593V38.8193H18.1698V35.9193C18.1698 35.4527 18.0598 35.1027 17.8398 34.8693C17.6198 34.6293 17.3065 34.5093 16.8998 34.5093C16.4398 34.5093 16.0765 34.6493 15.8098 34.9293C15.5432 35.2027 15.4098 35.5993 15.4098 36.1193V38.8193H14.1598V33.4793H15.3498V34.1693C15.5565 33.9227 15.8165 33.736 16.1298 33.6093C16.4432 33.4827 16.7965 33.4193 17.1898 33.4193ZM23.1855 36.5293L22.2555 37.4093V38.8193H21.0055V31.3993H22.2555V35.8793L24.8455 33.4793H26.3455L24.1155 35.7193L26.5555 38.8193H25.0355L23.1855 36.5293Z" fill="#75C244"/>
<rect x="2.5" y="0.5" width="23" height="23" rx="3.5" fill="white" stroke="#75C244"/>
<path d="M14 14.5711L10.992 16.3632L11.784 12.9842L9.128 10.7105L12.632 10.4184L14 7.22895L15.368 10.4184L18.872 10.7105L16.216 12.9842L17.008 16.3632L14 14.5711ZM22 9.71579L16.248 9.23421L14 4L11.752 9.23421L6 9.71579L10.36 13.45L9.056 19L14 16.0553L18.944 19L17.632 13.45L22 9.71579Z" fill="#75C244"/>
</svg>
