<svg width="48" height="48" viewBox="0 0 48 48" fill="none" xmlns="http://www.w3.org/2000/svg">
<circle cx="24" cy="24" r="24" fill="url(#paint0_linear)"/>
<path d="M20.4 24.3333C22.9773 24.3333 25.0667 22.2439 25.0667 19.6666C25.0667 17.0893 22.9773 15 20.4 15C17.8227 15 15.7334 17.0893 15.7334 19.6666C15.7334 22.2439 17.8227 24.3333 20.4 24.3333Z" fill="#F422EC"/>
<path d="M13.9997 33.6666H26.8003C27.9031 33.6666 28.8 32.6986 28.8 31.5082V30.9104C28.8 29.3508 28.028 27.9263 26.7838 27.1925C25.2936 26.3138 22.9767 25.2666 20.4 25.2666C17.8233 25.2666 15.5064 26.3139 14.0162 27.1925C12.772 27.9262 12 29.3508 12 30.9104V31.5082C12 32.6987 12.8969 33.6666 13.9997 33.6666Z" fill="#F422EC"/>
<path d="M35.4286 23.5714H32.5714V26.4286C32.5714 26.7429 32.3143 27 32 27C31.6857 27 31.4286 26.7429 31.4286 26.4286V23.5714H28.5714C28.2571 23.5714 28 23.3143 28 23C28 22.6857 28.2571 22.4286 28.5714 22.4286H31.4286V19.5714C31.4286 19.2571 31.6857 19 32 19C32.3143 19 32.5714 19.2571 32.5714 19.5714V22.4286H35.4286C35.7429 22.4286 36 22.6857 36 23C36 23.3143 35.7429 23.5714 35.4286 23.5714Z" fill="#F422EC"/>
<defs>
<linearGradient id="paint0_linear" x1="24" y1="0" x2="24" y2="48" gradientUnits="userSpaceOnUse">
<stop stop-color="#F422EC" stop-opacity="0.16"/>
<stop offset="0.473958" stop-color="#F422EC" stop-opacity="0.05"/>
</linearGradient>
</defs>
</svg>
