<?xml version="1.0" encoding="UTF-8"?>
<!DOCTYPE svg PUBLIC "-//W3C//DTD SVG 1.1//EN" "http://www.w3.org/Graphics/SVG/1.1/DTD/svg11.dtd">
<!-- Creator: CorelDRAW -->
<svg xmlns="http://www.w3.org/2000/svg" xml:space="preserve" width="0.347224in" height="0.347224in" style="shape-rendering:geometricPrecision; text-rendering:geometricPrecision; image-rendering:optimizeQuality; fill-rule:evenodd; clip-rule:evenodd"
viewBox="0 0 0.00948935 0.00948935"
 xmlns:xlink="http://www.w3.org/1999/xlink">
 <defs>
  <style type="text/css">
   <![CDATA[
    .str0 {stroke:#75C244;stroke-width:0.000379596}
    .fil1 {fill:#75C244}
    .fil0 {fill:white}
   ]]>
  </style>
 </defs>
 <g id="Layer_x0020_1">
  <metadata id="CorelCorpID_0Corel-Layer"/>
  <rect class="fil0 str0" x="0.000189791" y="0.000189791" width="0.00910976" height="0.00910976" rx="0.00244887" ry="0.00244887"/>
  <path class="fil1" d="M0.00328241 0.00669468c-2.2057e-005,0.0001275 0.000102431,0.000225197 0.000212178,0.000168817l0.00125004 -0.000641805 0.00125015 0.000641805c0.000109639,5.63799e-005 0.000234127,-4.13165e-005 0.000212178,-0.00016731l-0.000236171 -0.00134795 0.00100246 -0.000955122c9.33926e-005,-8.88736e-005 4.44368e-005,-0.000252095 -8.00508e-005,-0.000269956l-0.0013954 -0.000198513 -0.000621039 -0.00123218c-2.50697e-005,-5.20761e-005 -7.29495e-005,-7.9728e-005 -0.000122336,-8.31711e-005l-1.96899e-005 0c-4.92786e-005,3.44304e-006 -9.71584e-005,3.1095e-005 -0.000122228,8.31711e-005l-0.000620932 0.00123218 -0.00139551 0.000198513c-0.000124488,1.78608e-005 -0.000173551,0.000181083 -8.00508e-005,0.000269956l0.00100246 0.000956629 -0.000236064 0.00134494zm0.00139691 -0.000787274l-0.00104991 0.000539375 0.00019733 -0.00112663c1.03291e-005,-5.20761e-005 -7.53166e-006,-0.000107057 -4.58355e-005,-0.000143855l-0.000827622 -0.000788888 0.00115364 -0.000163222c4.89558e-005,-7.63926e-006 9.07027e-005,-3.87343e-005 0.00011276,-8.31711e-005l0.000524957 -0.00104088 0.000526571 0.00104088c2.04431e-005,4.44368e-005 6.219e-005,7.55318e-005 0.000111146,8.31711e-005l0.00115364 0.000163222 -0.000827514 0.000788888c-3.84115e-005,3.67975e-005 -5.61647e-005,9.02723e-005 -4.59431e-005,0.000143855l0.00019733 0.00112663 -0.00104991 -0.000539375c-4.03482e-005,-2.08735e-005 -8.88736e-005,-2.08735e-005 -0.000130621,0z"/>
 </g>
</svg>
