<svg width="18" height="18" viewBox="0 0 18 18" fill="none" xmlns="http://www.w3.org/2000/svg">
<path d="M18 5.5711L12.7067 5.10827L10.6368 0L8.56693 5.10827L3.27361 5.5711L7.28246 9.23088L6.08798 14.6563L10.6368 11.7764L15.1856 14.6563L13.983 9.23088L18 5.5711ZM12.3876 9.62514L12.7149 11.0908L11.4795 10.3108L10.6368 9.77942L9.79413 10.3108L8.55875 11.0908L8.87782 9.62514L9.1069 8.61377L8.36239 7.93667L7.2661 6.94244L8.70601 6.81388L9.68777 6.72817L10.0723 5.7768L10.6368 4.38831L11.2013 5.7768L11.5858 6.72817L12.5676 6.81388L13.9993 6.94244L12.9112 7.93667L12.1585 8.61377L12.3876 9.62514ZM0.131977 9.42801C-0.112645 8.99946 -0.00792375 8.47664 0.369236 8.21951L2.60274 6.67674L3.88721 7.84239L1.26918 9.65085C1.1301 9.74513 0.974654 9.79656 0.819209 9.79656C0.557406 9.79656 0.295604 9.65942 0.131977 9.42801ZM0.369236 16.4219L5.16349 13.1221L4.90987 14.3649L4.63171 15.5391L1.26918 17.8618C1.1301 17.9561 0.974654 17.9989 0.819209 17.9989C0.557406 17.9989 0.295604 17.8618 0.131977 17.6132C-0.112645 17.219 -0.00792375 16.6876 0.369236 16.4219ZM5.17168 8.99946L5.92436 9.69371L5.70346 10.7136L1.26918 13.7563C1.1301 13.8506 0.974654 13.8935 0.819209 13.8935C0.557406 13.8935 0.295604 13.7649 0.131977 13.5078C-0.112645 13.1135 -0.00792375 12.5821 0.369236 12.325L5.17168 8.99946Z" fill="#75C244"/>
</svg>
