<svg width="35" height="35" viewBox="0 0 35 35" fill="none" xmlns="http://www.w3.org/2000/svg">
<rect width="35" height="35" rx="10" fill="#C4C4C4"/>
<path fill-rule="evenodd" clip-rule="evenodd" d="M8.91707 19.6343C9.06226 19.6343 9.20151 19.692 9.30417 19.7946C9.40684 19.8973 9.46452 20.0365 9.46452 20.1817V22.9189C9.46452 23.2093 9.57987 23.4878 9.7852 23.6931C9.99053 23.8985 10.269 24.0138 10.5594 24.0138H23.698C23.9884 24.0138 24.2669 23.8985 24.4722 23.6931C24.6776 23.4878 24.7929 23.2093 24.7929 22.9189V20.1817C24.7929 20.0365 24.8506 19.8973 24.9533 19.7946C25.0559 19.692 25.1952 19.6343 25.3404 19.6343C25.4856 19.6343 25.6248 19.692 25.7275 19.7946C25.8301 19.8973 25.8878 20.0365 25.8878 20.1817V22.9189C25.8878 23.4997 25.6571 24.0567 25.2465 24.4673C24.8358 24.878 24.2788 25.1087 23.698 25.1087H10.5594C9.97864 25.1087 9.42166 24.878 9.011 24.4673C8.60034 24.0567 8.36963 23.4997 8.36963 22.9189V20.1817C8.36963 20.0365 8.42731 19.8973 8.52997 19.7946C8.63264 19.692 8.77188 19.6343 8.91707 19.6343Z" fill="black"/>
<path fill-rule="evenodd" clip-rule="evenodd" d="M16.7421 10.0522C16.7929 10.0012 16.8533 9.96076 16.9199 9.93316C16.9864 9.90556 17.0577 9.89136 17.1297 9.89136C17.2017 9.89136 17.273 9.90556 17.3395 9.93316C17.406 9.96076 17.4664 10.0012 17.5173 10.0522L20.8019 13.3369C20.9047 13.4396 20.9625 13.5791 20.9625 13.7244C20.9625 13.8698 20.9047 14.0092 20.8019 14.112C20.6991 14.2148 20.5597 14.2726 20.4143 14.2726C20.269 14.2726 20.1295 14.2148 20.0267 14.112L17.6771 11.7613V21.3886C17.6771 21.5338 17.6194 21.6731 17.5168 21.7757C17.4141 21.8784 17.2749 21.9361 17.1297 21.9361C16.9845 21.9361 16.8452 21.8784 16.7426 21.7757C16.6399 21.6731 16.5822 21.5338 16.5822 21.3886V11.7613L14.2326 14.112C14.1817 14.1629 14.1213 14.2033 14.0548 14.2309C13.9883 14.2584 13.917 14.2726 13.845 14.2726C13.773 14.2726 13.7018 14.2584 13.6352 14.2309C13.5687 14.2033 13.5083 14.1629 13.4574 14.112C13.4065 14.0611 13.3661 14.0007 13.3386 13.9342C13.3111 13.8677 13.2969 13.7964 13.2969 13.7244C13.2969 13.6525 13.3111 13.5812 13.3386 13.5147C13.3661 13.4482 13.4065 13.3877 13.4574 13.3369L16.7421 10.0522Z" fill="black"/>
</svg>
