<?xml version="1.0" encoding="UTF-8"?>
<!DOCTYPE svg PUBLIC "-//W3C//DTD SVG 1.1//EN" "http://www.w3.org/Graphics/SVG/1.1/DTD/svg11.dtd">
<!-- Creator: CorelDRAW -->
<svg xmlns="http://www.w3.org/2000/svg" xml:space="preserve" width="0.333335in" height="0.333335in" style="shape-rendering:geometricPrecision; text-rendering:geometricPrecision; image-rendering:optimizeQuality; fill-rule:evenodd; clip-rule:evenodd"
viewBox="0 0 0.00930653 0.00930653"
 xmlns:xlink="http://www.w3.org/1999/xlink">
 <defs>
  <style type="text/css">
   <![CDATA[
    .fil1 {fill:gray}
    .fil0 {fill:#E3E3E3}
   ]]>
  </style>
 </defs>
 <g id="Layer_x0020_1">
  <metadata id="CorelCorpID_0Corel-Layer"/>
  <rect class="fil0" width="0.00930653" height="0.00930653" rx="0.00250176" ry="0.00250176"/>
  <g id="_426050200">
   <path id="_426050080" class="fil1" d="M0.00454945 0.00268478c1.37399e-005,-1.38498e-005 3.04476e-005,-2.48417e-005 4.84744e-005,-3.18766e-005 1.67077e-005,-6.70507e-006 3.57237e-005,-1.11018e-005 5.52894e-005,-1.11018e-005 1.94557e-005,0 3.71527e-005,4.39677e-006 5.52894e-005,1.11018e-005 1.80268e-005,7.03483e-006 3.46246e-005,1.80268e-005 4.70454e-005,3.18766e-005l0.000873088 0.000873088c2.75897e-005,2.61608e-005 4.28685e-005,6.37531e-005 4.28685e-005,0.000102335 0,3.85816e-005 -1.52788e-005,7.6174e-005 -4.28685e-005,0.000102335 -2.75897e-005,2.75897e-005 -6.51821e-005,4.28685e-005 -0.000102335,4.28685e-005 -3.90213e-005,0 -7.6174e-005,-1.52788e-005 -0.000103764,-4.28685e-005l-0.000624121 -0.000624121 0 0.00255694c0,3.86916e-005 -1.52788e-005,7.62839e-005 -4.28685e-005,0.000103874 -2.61608e-005,2.75897e-005 -6.37531e-005,4.28685e-005 -0.000102335,4.28685e-005 -3.85816e-005,0 -7.6174e-005,-1.52788e-005 -0.000102335,-4.28685e-005 -2.75897e-005,-2.75897e-005 -4.28685e-005,-6.51821e-005 -4.28685e-005,-0.000103874l0 -0.00255694 -0.000624121 0.000624121c-1.38498e-005,1.38498e-005 -3.04476e-005,2.48417e-005 -4.70454e-005,3.19865e-005 -1.78069e-005,6.70507e-006 -3.72626e-005,1.0882e-005 -5.67183e-005,1.0882e-005 -1.95656e-005,0 -3.71527e-005,-4.17693e-006 -5.52894e-005,-1.0882e-005 -1.80268e-005,-7.14475e-006 -3.33055e-005,-1.81367e-005 -4.70454e-005,-3.19865e-005 -1.38498e-005,-1.2311e-005 -2.48417e-005,-2.90187e-005 -3.19865e-005,-4.70454e-005 -6.70507e-006,-1.81367e-005 -1.0882e-005,-3.57237e-005 -1.0882e-005,-5.52894e-005 0,-1.94557e-005 4.17693e-006,-3.85816e-005 1.0882e-005,-5.52894e-005 7.14475e-006,-1.80268e-005 1.81367e-005,-3.46246e-005 3.19865e-005,-4.70454e-005l0.000871659 -0.000873088z"/>
   <path id="_426050128" class="fil1" d="M0.00247175 0.0052105c3.90213e-005,0 7.62839e-005,1.52788e-005 0.000102445,4.28685e-005 2.75897e-005,2.61608e-005 4.28685e-005,6.37531e-005 4.28685e-005,0.000102445l0 0.000727775c0,7.62839e-005 3.04476e-005,0.000150919 8.5737e-005,0.00020478 5.41902e-005,5.51794e-005 0.000128935,8.5737e-005 0.000204999,8.5737e-005l0.00349081 0c7.7603e-005,0 0.000150809,-3.05575e-005 0.000206099,-8.5737e-005 5.38604e-005,-5.38604e-005 8.4308e-005,-0.000128496 8.4308e-005,-0.00020478l0 -0.000727775c0,-3.86916e-005 1.52788e-005,-7.62839e-005 4.31983e-005,-0.000102445 2.76996e-005,-2.75897e-005 6.48523e-005,-4.28685e-005 0.000102445,-4.28685e-005 3.85816e-005,0 7.57343e-005,1.52788e-005 0.000103764,4.28685e-005 2.62707e-005,2.61608e-005 4.13296e-005,6.37531e-005 4.13296e-005,0.000102445l0 0.000727775c0,0.000153447 -6.07853e-005,0.000301398 -0.000170265,0.000410878 -0.000107721,0.00010948 -0.000255782,0.000170155 -0.000410878,0.000170155l-0.00349081 0c-0.000153667,0 -0.000301728,-6.06754e-005 -0.000411208,-0.000170155 -0.00010904,-0.00010948 -0.000169935,-0.000257431 -0.000169935,-0.000410878l0 -0.000727775c0,-3.86916e-005 1.51689e-005,-7.62839e-005 4.28685e-005,-0.000102445 2.61608e-005,-2.75897e-005 6.37531e-005,-4.28685e-005 0.000102225,-4.28685e-005z"/>
  </g>
 </g>
</svg>
