<svg width="40" height="40" viewBox="0 0 40 40" fill="none" xmlns="http://www.w3.org/2000/svg">
<circle cx="20" cy="16" r="7" fill="white"/>
<path fill-rule="evenodd" clip-rule="evenodd" d="M20 40C31.0457 40 40 31.0457 40 20C40 8.9543 31.0457 0 20 0C8.9543 0 0 8.9543 0 20C0 31.0457 8.9543 40 20 40ZM6.0382 31.3617C3.51366 28.2632 2 24.3084 2 20C2 10.0589 10.0589 2 20 2C29.9411 2 38 10.0589 38 20C38 24.1513 36.5947 27.9744 34.2338 31.0195L33.8361 30.5105C31.941 28.0845 29.0341 26.6667 25.9557 26.6667H14.6463C11.7 26.6667 8.90367 27.9659 7.00361 30.2176L6.0382 31.3617Z" fill="white"/>
</svg>
