<svg xmlns="http://www.w3.org/2000/svg" width="63.858" height="69.406" viewBox="0 0 63.858 69.406"><defs><style>.a{fill:#778ad8;}.b{fill:#6677bf;}.c{fill:#5666aa;}.d{fill:#313131;}</style></defs><g transform="translate(0 0)"><path class="a" d="M96.353,87.484H44.582a4.434,4.434,0,0,0,4.475-3.3C52.74,74.251,42.93,45.3,70.468,45.3s17.726,28.951,21.41,38.885a4.436,4.436,0,0,0,4.475,3.3Zm0,0" transform="translate(-38.539 -39.159)"/><path class="b" d="M69.4,361.5a5.013,5.013,0,0,1-5.012,5.013H12.618a5.012,5.012,0,1,1,0-10.024H64.39A5.012,5.012,0,0,1,69.4,361.5Zm0,0" transform="translate(-6.575 -308.16)"/><path class="b" d="M91.881,84.193H64.972a5.136,5.136,0,0,1-5.131-5.3c.379-12.268-1.577-33.351,10.427-33.583-32.953.171-11.888,42.183-25.684,42.183H96.356a4.436,4.436,0,0,1-4.475-3.3Zm0,0" transform="translate(-38.541 -39.166)"/><path class="a" d="M161.768,361.5a5.013,5.013,0,0,1-5.012,5.013H119.469a5.012,5.012,0,0,1,0-10.024h37.287a5.012,5.012,0,0,1,5.012,5.012Zm0,0" transform="translate(-98.941 -308.16)"/><path class="c" d="M181.632,430.434a10.025,10.025,0,1,1-20.05,0Zm0,0" transform="translate(-139.678 -372.085)"/><path class="b" d="M226.766,453.246a10.049,10.049,0,0,1-6.859,6.571,10.035,10.035,0,0,1-5.114-3.355,1.983,1.983,0,0,1,1.557-3.216Zm0,0" transform="translate(-185.297 -391.805)"/><path class="b" d="M208.052,13.1c.011-.127.015-.254.015-.383a5.11,5.11,0,0,0-10.22,0c0,.129,0,.257.015.383" transform="translate(-171.028 -6.574)"/><path class="d" d="M57.814,47.293h0c-2,0-3.123-1.037-3.768-3.461-.659-2.479-.681-6.075-.7-9.881-.028-4.612-.06-9.84-1.206-14.515a1.031,1.031,0,0,0-2,.491c1.089,4.44,1.12,9.538,1.147,14.037.024,3.942.047,7.665.774,10.4a8.282,8.282,0,0,0,1.355,2.931H10.453a8.282,8.282,0,0,0,1.355-2.931c.727-2.733.75-6.457.774-10.4.037-6.018.078-12.839,2.541-18.059,2.772-5.876,8.269-8.733,16.807-8.733,4.689,0,8.526.881,11.4,2.62a13.835,13.835,0,0,1,5.6,6.548,1.031,1.031,0,0,0,1.888-.829A16.045,16.045,0,0,0,44.4,8.026,19.562,19.562,0,0,0,38.05,5.667a6.139,6.139,0,0,0-12.242,0,19.748,19.748,0,0,0-6.1,2.208,15.9,15.9,0,0,0-6.456,7.149c-2.656,5.632-2.7,12.694-2.737,18.926-.023,3.807-.045,7.4-.7,9.881-.645,2.424-1.772,3.46-3.768,3.461h0a6.044,6.044,0,0,0,0,12.087h6.524a1.031,1.031,0,1,0,0-2.061H6.043a3.982,3.982,0,0,1,0-7.964H57.815a3.982,3.982,0,0,1,0,7.964H16.691a1.031,1.031,0,0,0,0,2.061h4.231a11.054,11.054,0,0,0,22.013,0H57.815a6.044,6.044,0,0,0,0-12.087ZM31.929,2.062a4.087,4.087,0,0,1,4,3.276,35.358,35.358,0,0,0-8,0,4.085,4.085,0,0,1,4-3.275Zm0,65.283A9.007,9.007,0,0,1,23,59.381H40.863a9.007,9.007,0,0,1-8.934,7.964Zm0,0"/></g></svg>