<svg xmlns="http://www.w3.org/2000/svg" width="105" height="76" viewBox="0 0 105 76">
  <g id="icon_challenge" transform="translate(-238 -324)">
    <g id="Group_44" data-name="Group 44" transform="translate(238 324)">
      <rect id="Rectangle_141" data-name="Rectangle 141" width="105" height="76" rx="10" transform="translate(0 0)" fill="#f8b44f"/>
      <path id="Intersection_2" data-name="Intersection 2" d="M0,0H74.854a10,10,0,0,1,10,10V62a68.632,68.632,0,0,1-16.5,2A68.505,68.505,0,0,1,0,0Z" transform="translate(84.854 76) rotate(180)" fill="#f8bc64"/>
    </g>
    <g id="top" transform="translate(271.171 343.511)">
      <path id="Path_240" data-name="Path 240" d="M448,448h1.3v1.3H448Zm0,0" transform="translate(-411.476 -411.476)" fill="#fff"/>
      <path id="Path_241" data-name="Path 241" d="M0,448H1.3v1.3H0Zm0,0" transform="translate(0 -411.476)" fill="#fff"/>
      <path id="Path_242" data-name="Path 242" d="M82.355,288a4.589,4.589,0,0,0-4.383,3.287l-.379,1.3c.361.546.619.632.845.632.536,0,.876-.6,1.372-1.6.516-1.032,1.158-2.318,2.54-2.318s2.024,1.285,2.541,2.318c.5.993.837,1.6,1.374,1.6.226,0,.487-.085.849-.636l-.377-1.295A4.589,4.589,0,0,0,82.356,288Zm0,0" transform="translate(-71.268 -264.52)" fill="#fff"/>
      <path id="Path_243" data-name="Path 243" d="M259.67,323.256l-.357,1.019c.382.679.673.942,1.031.942.536,0,.876-.6,1.372-1.6.516-1.032,1.158-2.317,2.54-2.317s2.025,1.285,2.541,2.317c.5.993.837,1.6,1.374,1.6.359,0,.652-.264,1.034-.945l-.355-1.016a4.864,4.864,0,0,0-9.181,0Zm0,0" transform="translate(-238.172 -293.911)" fill="#fff"/>
      <path id="Path_244" data-name="Path 244" d="M158.453,209.635l1.533-4.38a6.176,6.176,0,0,1,5.822-4.131l.055,0-1.74-5.966a2.075,2.075,0,0,1-1.578.746c-1.382,0-2.024-1.285-2.541-2.318-.5-.993-.838-1.6-1.374-1.6s-.877.6-1.373,1.6c-.516,1.032-1.159,2.318-2.54,2.318a2.07,2.07,0,0,1-1.573-.742l-1.023,3.506a5.9,5.9,0,0,1,4.322,4.072Zm0,0" transform="translate(-139.719 -176.34)" fill="#fff"/>
      <path id="Path_245" data-name="Path 245" d="M171.113,15.027,170.48,17.2c.421.778.721,1.066,1.1,1.066.536,0,.876-.6,1.372-1.6.516-1.032,1.158-2.317,2.54-2.317s2.024,1.285,2.541,2.317c.5.993.837,1.6,1.374,1.6.379,0,.68-.289,1.1-1.071l-.631-2.164a4.588,4.588,0,0,0-3.731-3.233V7.826l7.827-3.261L176.147,1.3V0h-1.3V11.794a4.59,4.59,0,0,0-3.73,3.233Zm0,0" transform="translate(-156.581)" fill="#fff"/>
      <path id="Path_246" data-name="Path 246" d="M60.957,325.782a2.075,2.075,0,0,1-1.565.733c-1.382,0-2.024-1.285-2.541-2.317-.5-.993-.838-1.6-1.374-1.6s-.877.6-1.373,1.6c-.516,1.032-1.159,2.317-2.54,2.317A2.068,2.068,0,0,1,50,325.785l-1.625,4.644H47l.389-1.112-1.716-5.882a1.984,1.984,0,0,1-1.278.472c-1.382,0-2.024-1.285-2.541-2.317-.5-.993-.838-1.6-1.374-1.6s-.877.6-1.373,1.6c-.516,1.032-1.159,2.317-2.54,2.317a1.957,1.957,0,0,1-1.274-.464l-2.039,6.987H32v1.3H64.611v-1.3H62.583Zm0,0" transform="translate(-29.391 -293.905)" fill="#fff"/>
      <path id="Path_247" data-name="Path 247" d="M2.73,107.739h9.124l1.431-4.905a5.874,5.874,0,0,1,2.435-3.265,3.3,3.3,0,0,0-2.671-.035l-.657.288-.177-.537A4.7,4.7,0,0,0,8.35,96.028a4.535,4.535,0,0,0-5.02,5.258,3.924,3.924,0,0,1,3.125,3.091.648.648,0,0,1-.647.754.662.662,0,0,1-.64-.541,2.609,2.609,0,0,0-5.149.8,2.687,2.687,0,0,0,2.711,2.349Zm0,0" transform="translate(-0.005 -88.173)" fill="#fff"/>
    </g>
  </g>
</svg>
