<svg xmlns="http://www.w3.org/2000/svg" width="18.498" height="18.917" viewBox="0 0 18.498 18.917"><defs><style>.a</style></defs><g transform="translate(-5.411)"><g transform="translate(5.411)"><path class="a" d="M119.392,258.671a.429.429,0,0,0-.429-.429h-1.5a.429.429,0,0,0-.429.429v1.5a.429.429,0,0,0,.429.429h1.5a.429.429,0,0,0,.429-.429v-1.5Z" transform="translate(-112.709 -248.234)"/><path class="a" d="M216.027,258.671a.429.429,0,0,0-.429-.429h-1.5a.429.429,0,0,0-.429.429v1.5a.429.429,0,0,0,.429.429h1.5a.429.429,0,0,0,.429-.429Z" transform="translate(-205.599 -248.234)"/><path class="a" d="M312.655,258.671a.429.429,0,0,0-.429-.429h-1.5a.429.429,0,0,0-.429.429v1.5a.429.429,0,0,0,.429.429h1.5a.429.429,0,0,0,.429-.429Z" transform="translate(-298.483 -248.234)"/><path class="a" d="M119.392,355.3a.429.429,0,0,0-.429-.429h-1.5a.429.429,0,0,0-.429.429v1.5a.429.429,0,0,0,.429.429h1.5a.429.429,0,0,0,.429-.429v-1.5Z" transform="translate(-112.709 -341.122)"/><path class="a" d="M216.027,355.3a.429.429,0,0,0-.429-.429h-1.5a.429.429,0,0,0-.429.429v1.5a.429.429,0,0,0,.429.429h1.5a.429.429,0,0,0,.429-.429Z" transform="translate(-205.599 -341.122)"/><path class="a" d="M312.655,355.3a.429.429,0,0,0-.429-.429h-1.5a.429.429,0,0,0-.429.429v1.5a.429.429,0,0,0,.429.429h1.5a.429.429,0,0,0,.429-.429v-1.5Z" transform="translate(-298.483 -341.122)"/><path class="a" d="M22.263,54.15v2.288a1.869,1.869,0,0,1-1.873,1.868H19.208a1.879,1.879,0,0,1-1.884-1.868v-2.3H12v2.3a1.879,1.879,0,0,1-1.884,1.868H8.931a1.869,1.869,0,0,1-1.873-1.868V54.15a1.7,1.7,0,0,0-1.647,1.694V69.256a1.7,1.7,0,0,0,1.7,1.706H22.213a1.706,1.706,0,0,0,1.7-1.706V55.845A1.7,1.7,0,0,0,22.263,54.15Zm-.549,14.27a.733.733,0,0,1-.733.733H8.307a.733.733,0,0,1-.733-.733V61.493a.733.733,0,0,1,.733-.733H20.981a.733.733,0,0,1,.733.733V68.42Z" transform="translate(-5.411 -52.044)"/><path class="a" d="M80.192,5.036h1.169A.642.642,0,0,0,82,4.394V.642A.642.642,0,0,0,81.361,0H80.192a.642.642,0,0,0-.642.642V4.394A.642.642,0,0,0,80.192,5.036Z" transform="translate(-76.677)"/><path class="a" d="M345.1,5.036h1.169a.642.642,0,0,0,.642-.642V.642A.642.642,0,0,0,346.269,0H345.1a.642.642,0,0,0-.642.642V4.394A.642.642,0,0,0,345.1,5.036Z" transform="translate(-331.319)"/></g></g></svg>