<svg xmlns="http://www.w3.org/2000/svg" width="105" height="76" viewBox="0 0 105 76">
  <g id="icon_event" transform="translate(-127.999 -324)">
    <g id="Group_47" data-name="Group 47">
      <g id="Group_45" data-name="Group 45" transform="translate(128 324)">
        <rect id="Rectangle_141" data-name="Rectangle 141" width="105" height="76" rx="10" transform="translate(0 0)" fill="#ff6e30"/>
      </g>
      <path id="Intersection_3" data-name="Intersection 3" d="M1538,2811.811V2782a10,10,0,0,1,10-10h85a10,10,0,0,1,10,10v6.124a75.033,75.033,0,0,1-105,23.688Z" transform="translate(-1410 -2448)" fill="#f38c5f"/>
    </g>
    <g id="calendar_1_" data-name="calendar (1)" transform="translate(130.01 312.511)">
      <path id="Path_224" data-name="Path 224" d="M416,312h1.25v1.25H416Z" transform="translate(-354.009 -258.131)" fill="#fff"/>
      <path id="Path_225" data-name="Path 225" d="M416,392h1.25v1.25H416Z" transform="translate(-354.009 -331.883)" fill="#fff"/>
      <path id="Path_226" data-name="Path 226" d="M258.419,231.838l-.383,2.347L260,233.1a.625.625,0,0,1,.6,0l1.963,1.086-.383-2.347a.625.625,0,0,1,.169-.537L264,229.61l-2.252-.344a.625.625,0,0,1-.471-.352l-.979-2.086-.979,2.086a.625.625,0,0,1-.471.352l-2.252.344,1.65,1.691A.625.625,0,0,1,258.419,231.838Z" transform="translate(-207.057 -179.612)" fill="#fff"/>
      <path id="Path_227" data-name="Path 227" d="M336,392h1.25v1.25H336Z" transform="translate(-280.257 -331.883)" fill="#fff"/>
      <path id="Path_228" data-name="Path 228" d="M176,392h1.25v1.25H176Z" transform="translate(-132.753 -331.883)" fill="#fff"/>
      <path id="Path_229" data-name="Path 229" d="M176,232h1.25v1.25H176Z" transform="translate(-132.753 -184.38)" fill="#fff"/>
      <path id="Path_230" data-name="Path 230" d="M176,312h1.25v1.25H176Z" transform="translate(-132.753 -258.131)" fill="#fff"/>
      <path id="Path_231" data-name="Path 231" d="M377.25,36.374V32.625a.625.625,0,1,0-1.25,0v3.749a.625.625,0,1,0,1.25,0Z" transform="translate(-317.133)" fill="#fff"/>
      <path id="Path_232" data-name="Path 232" d="M256,392h1.25v1.25H256Z" transform="translate(-206.505 -331.883)" fill="#fff"/>
      <path id="Path_233" data-name="Path 233" d="M121.25,36.374V32.625a.625.625,0,1,0-1.25,0v3.749a.625.625,0,1,0,1.25,0Z" transform="translate(-81.127)" fill="#fff"/>
      <path id="Path_234" data-name="Path 234" d="M249.25,36.374V32.625a.625.625,0,1,0-1.25,0v3.749a.625.625,0,1,0,1.25,0Z" transform="translate(-199.13)" fill="#fff"/>
      <path id="Path_235" data-name="Path 235" d="M416,232h1.25v1.25H416Z" transform="translate(-354.009 -184.38)" fill="#fff"/>
      <path id="Path_236" data-name="Path 236" d="M96,312h1.25v1.25H96Z" transform="translate(-59.001 -258.131)" fill="#fff"/>
      <path id="Path_237" data-name="Path 237" d="M32,183.118a1.877,1.877,0,0,0,1.874,1.874H65.115a1.877,1.877,0,0,0,1.874-1.874V160H32Zm19.994-3.124a.625.625,0,0,1-.625.625h-2.5a.625.625,0,0,1-.625-.625v-2.5a.625.625,0,0,1,.625-.625h2.5a.625.625,0,0,1,.625.625Zm6.248,0a.625.625,0,0,1-.625.625h-2.5a.625.625,0,0,1-.625-.625v-2.5a.625.625,0,0,1,.625-.625h2.5a.625.625,0,0,1,.625.625Zm2.5-15a.625.625,0,0,1,.625-.625h2.5a.625.625,0,0,1,.625.625v2.5a.625.625,0,0,1-.625.625h-2.5a.625.625,0,0,1-.625-.625Zm0,6.248a.625.625,0,0,1,.625-.625h2.5a.625.625,0,0,1,.625.625v2.5a.625.625,0,0,1-.625.625h-2.5a.625.625,0,0,1-.625-.625Zm0,6.248a.625.625,0,0,1,.625-.625h2.5a.625.625,0,0,1,.625.625v2.5a.625.625,0,0,1-.625.625h-2.5a.625.625,0,0,1-.625-.625ZM47.653,167.369a.625.625,0,0,1,.5-.419l3.124-.477,1.4-2.989a.625.625,0,0,1,1.131,0l1.4,2.989,3.124.477A.625.625,0,0,1,58.689,168L56.41,170.34l.539,3.306a.625.625,0,0,1-.918.647l-2.787-1.54-2.787,1.54a.625.625,0,0,1-.919-.647l.539-3.306L47.8,168A.625.625,0,0,1,47.653,167.369ZM42,165a.625.625,0,0,1,.625-.625h2.5a.625.625,0,0,1,.625.625v2.5a.625.625,0,0,1-.625.625h-2.5A.625.625,0,0,1,42,167.5Zm0,6.248a.625.625,0,0,1,.625-.625h2.5a.625.625,0,0,1,.625.625v2.5a.625.625,0,0,1-.625.625h-2.5a.625.625,0,0,1-.625-.625Zm0,6.248a.625.625,0,0,1,.625-.625h2.5a.625.625,0,0,1,.625.625v2.5a.625.625,0,0,1-.625.625h-2.5a.625.625,0,0,1-.625-.625Zm-6.248-6.248a.625.625,0,0,1,.625-.625h2.5a.625.625,0,0,1,.625.625v2.5a.625.625,0,0,1-.625.625h-2.5a.625.625,0,0,1-.625-.625Zm0,6.248a.625.625,0,0,1,.625-.625h2.5a.625.625,0,0,1,.625.625v2.5a.625.625,0,0,1-.625.625h-2.5a.625.625,0,0,1-.625-.625Z" transform="translate(0 -118.003)" fill="#fff"/>
      <path id="Path_238" data-name="Path 238" d="M96,392h1.25v1.25H96Z" transform="translate(-59.001 -331.883)" fill="#fff"/>
      <path id="Path_239" data-name="Path 239" d="M65.115,64H61.366v1.874a1.874,1.874,0,0,1-3.749,0V64H51.369v1.874a1.874,1.874,0,0,1-3.749,0V64H41.372v1.874a1.874,1.874,0,1,1-3.749,0V64H33.874A1.877,1.877,0,0,0,32,65.874v4.374H66.99V65.874A1.877,1.877,0,0,0,65.115,64Z" transform="translate(0 -29.501)" fill="#fff"/>
    </g>
  </g>
</svg>
