<svg xmlns="http://www.w3.org/2000/svg" width="20.776" height="20.778" viewBox="0 0 20.776 20.778"><defs><style>.a</style></defs><path class="a" d="M20.218,9.037h0L11.74.56a1.912,1.912,0,0,0-2.705,0L.564,9.031.555,9.04A1.912,1.912,0,0,0,1.828,12.3l.059,0h.338v6.237a2.241,2.241,0,0,0,2.239,2.239H7.78a.609.609,0,0,0,.609-.609v-4.89A1.022,1.022,0,0,1,9.41,14.257h1.956a1.022,1.022,0,0,1,1.021,1.021v4.89a.609.609,0,0,0,.609.609h3.316a2.241,2.241,0,0,0,2.239-2.239V12.3h.313a1.913,1.913,0,0,0,1.354-3.265Zm0,0" transform="translate(0 0.001)"/></svg>