<svg xmlns="http://www.w3.org/2000/svg" width="20.755" height="18.242" viewBox="0 0 20.755 18.242"><defs><style>.a</style></defs><g transform="translate(0)"><path class="a" d="M211,240h3.648v1.216H211Zm0,0" transform="translate(-202.447 -230.271)"/><path class="a" d="M16.838,85.217h-3.42v.608a.608.608,0,0,1-.608.608H7.945a.608.608,0,0,1-.608-.608v-.608H3.917a1.822,1.822,0,0,1-1.73-1.247L0,77.41V90.69a1.826,1.826,0,0,0,1.824,1.824H18.931a1.826,1.826,0,0,0,1.824-1.824V77.411l-2.186,6.56A1.822,1.822,0,0,1,16.838,85.217Zm0,0" transform="translate(0 -74.272)"/><path class="a" d="M37.572,0H32.708a1.826,1.826,0,0,0-1.824,1.824v.608H25.809L28.1,9.313a.608.608,0,0,0,.577.416H32.1V9.121a.608.608,0,0,1,.608-.608h4.864a.608.608,0,0,1,.608.608v.608H41.6a.608.608,0,0,0,.577-.416l2.294-6.881H39.4V1.824A1.826,1.826,0,0,0,37.572,0ZM32.1,2.432V1.824a.608.608,0,0,1,.608-.608h4.864a.608.608,0,0,1,.608.608v.608Zm0,0" transform="translate(-24.763 0)"/></g></svg>