<svg xmlns="http://www.w3.org/2000/svg" width="10.182" height="8" viewBox="0 0 10.182 8"><defs><style>.a{fill:#a1a1a1;}</style></defs><g transform="translate(0 -54.82)"><g transform="translate(0 54.82)"><path class="a" d="M.977,57.286q.193.136,1.165.81t1.489,1.037l.241.173q.185.134.307.216t.3.185a1.714,1.714,0,0,0,.327.153.9.9,0,0,0,.284.051H5.1a.9.9,0,0,0,.284-.051,1.716,1.716,0,0,0,.327-.153q.173-.1.3-.185t.307-.216l.242-.173L9.21,57.286a2.7,2.7,0,0,0,.693-.7,1.5,1.5,0,0,0,.278-.858.917.917,0,0,0-.909-.909H.909a.811.811,0,0,0-.673.3A1.147,1.147,0,0,0,0,55.854a1.327,1.327,0,0,0,.313.776A2.82,2.82,0,0,0,.977,57.286Z" transform="translate(0 -54.82)"/><path class="a" d="M9.614,184.931q-1.863,1.261-2.829,1.96-.324.239-.526.372a3.242,3.242,0,0,1-.537.273,1.635,1.635,0,0,1-.625.139H5.085a1.636,1.636,0,0,1-.625-.139,3.244,3.244,0,0,1-.537-.273q-.2-.133-.526-.372-.767-.562-2.824-1.96A3.009,3.009,0,0,1,0,184.437v4.511a.875.875,0,0,0,.267.642.875.875,0,0,0,.642.267H9.273a.912.912,0,0,0,.909-.909v-4.511A3.133,3.133,0,0,1,9.614,184.931Z" transform="translate(0 -181.857)"/></g></g></svg>