<svg xmlns="http://www.w3.org/2000/svg" width="16.627" height="18.917" viewBox="0 0 16.627 18.917"><defs><style>.a</style></defs><g transform="translate(-30.999)"><path class="a" d="M189.82,468.663A2.775,2.775,0,0,0,192.359,467h-5.078A2.775,2.775,0,0,0,189.82,468.663Z" transform="translate(-150.508 -449.745)"/><path class="a" d="M45.039,9.158V7.944a5.737,5.737,0,0,0-4.064-5.481v-.8a1.663,1.663,0,1,0-3.325,0v.8a5.737,5.737,0,0,0-4.064,5.481V9.158a8.7,8.7,0,0,1-2.432,6.05.554.554,0,0,0,.4.938H47.071a.554.554,0,0,0,.4-.938A8.7,8.7,0,0,1,45.039,9.158ZM39.866,2.244c-.182-.018-.367-.027-.554-.027s-.372.009-.554.027V1.663a.554.554,0,0,1,1.108,0Z" transform="translate(0)"/><path class="a" d="M391.765,57.548a.554.554,0,0,0,1.108,0,8.259,8.259,0,0,0-2.435-5.878.554.554,0,1,0-.784.784A7.158,7.158,0,0,1,391.765,57.548Z" transform="translate(-345.248 -49.604)"/><path class="a" d="M31.554,58.1a.554.554,0,0,0,.554-.554,7.158,7.158,0,0,1,2.11-5.095.554.554,0,1,0-.784-.784A8.259,8.259,0,0,0,31,57.548.554.554,0,0,0,31.554,58.1Z" transform="translate(-0.001 -49.604)"/></g></svg>