<svg xmlns="http://www.w3.org/2000/svg" width="8.483" height="10.368" viewBox="0 0 8.483 10.368"><defs><style>.a{fill:#a1a1a1;}</style></defs><g transform="translate(-36.548)"><path class="a" d="M44.824,4.919a.682.682,0,0,0-.5-.206h-.236V3.3A3.174,3.174,0,0,0,43.116.972a3.271,3.271,0,0,0-4.654,0A3.174,3.174,0,0,0,37.49,3.3V4.713h-.236a.7.7,0,0,0-.707.707V9.661a.7.7,0,0,0,.707.707h7.069a.7.7,0,0,0,.707-.707V5.42A.681.681,0,0,0,44.824,4.919Zm-2.15-.206H38.9V3.3a1.816,1.816,0,0,1,.552-1.333,1.885,1.885,0,0,1,2.666,0A1.816,1.816,0,0,1,42.674,3.3Z"/></g></svg>