<svg xmlns="http://www.w3.org/2000/svg" width="14.266" height="17.1" viewBox="0 0 14.266 17.1"><defs><style>.a</style></defs><g transform="translate(0 0)"><path class="a" d="M91.15,8.237a3.985,3.985,0,0,0,2.912-1.207,3.985,3.985,0,0,0,1.206-2.912,3.986,3.986,0,0,0-1.207-2.912,4.118,4.118,0,0,0-5.824,0,3.985,3.985,0,0,0-1.207,2.912,3.985,3.985,0,0,0,1.207,2.912A3.986,3.986,0,0,0,91.15,8.237Zm0,0" transform="translate(-84.125 0)"/><path class="a" d="M14.232,252.205a10.173,10.173,0,0,0-.139-1.08,8.512,8.512,0,0,0-.266-1.086,5.367,5.367,0,0,0-.447-1.013,3.823,3.823,0,0,0-.673-.878,2.97,2.97,0,0,0-.967-.608,3.343,3.343,0,0,0-1.235-.223,1.254,1.254,0,0,0-.669.284c-.2.131-.435.282-.7.45a4,4,0,0,1-.9.4,3.5,3.5,0,0,1-2.207,0,3.987,3.987,0,0,1-.9-.4c-.259-.166-.494-.317-.7-.45a1.252,1.252,0,0,0-.669-.284,3.339,3.339,0,0,0-1.235.224,2.967,2.967,0,0,0-.967.608,3.823,3.823,0,0,0-.673.877,5.376,5.376,0,0,0-.447,1.013,8.533,8.533,0,0,0-.266,1.086,10.137,10.137,0,0,0-.139,1.081c-.023.327-.034.667-.034,1.01a2.839,2.839,0,0,0,.843,2.148,3.036,3.036,0,0,0,2.173.793H11.25a3.035,3.035,0,0,0,2.173-.793,2.838,2.838,0,0,0,.843-2.148c0-.345-.012-.684-.035-1.01Zm0,0" transform="translate(0 -239.056)"/></g></svg>