<svg xmlns="http://www.w3.org/2000/svg" width="12" height="12" viewBox="0 0 12 12"><defs><style>.a{fill:none;}.b{fill:#a1a1a1;}</style></defs><path class="a" d="M0,0H12V12H0ZM0,0H12V12H0ZM0,0H12V12H0ZM0,0H12V12H0Z"/><path class="b" d="M6.5,4.684a2.469,2.469,0,0,1,2.38,3.23l1.53,1.53A5.9,5.9,0,0,0,12,7.179a5.919,5.919,0,0,0-7.32-3.46L5.765,4.8A2.57,2.57,0,0,1,6.5,4.684ZM1.855,3.014a.5.5,0,0,0,0,.7L2.84,4.7A5.946,5.946,0,0,0,1,7.184a5.9,5.9,0,0,0,7.655,3.34l1.36,1.36a.5.5,0,0,0,.7-.7L2.565,3.014A.5.5,0,0,0,1.855,3.014ZM6.5,9.684A2.5,2.5,0,0,1,4,7.184a2.456,2.456,0,0,1,.245-1.07L5.03,6.9A1.717,1.717,0,0,0,5,7.184a1.5,1.5,0,0,0,1.5,1.5,1.347,1.347,0,0,0,.285-.035l.785.785A2.406,2.406,0,0,1,6.5,9.684ZM7.985,7.019A1.485,1.485,0,0,0,6.665,5.7Z" transform="translate(-0.5 -1.434)"/></svg>