<svg width="360" height="144" viewBox="0 0 360 144" fill="none" xmlns="http://www.w3.org/2000/svg">
<mask id="mask0" mask-type="alpha" maskUnits="userSpaceOnUse" x="0" y="0" width="360" height="144">
<path d="M0 0H360V121.141C360 121.141 255.114 144.737 179.035 143.982C105.84 143.256 0 121.141 0 121.141V0Z" fill="#75C244"/>
</mask>
<g mask="url(#mask0)">
<mask id="mask1" mask-type="alpha" maskUnits="userSpaceOnUse" x="0" y="0" width="360" height="148">
<path d="M0 0H360V127.254C360 138.3 351.046 147.254 340 147.254H20C8.95432 147.254 0 138.3 0 127.254V0Z" fill="#C4C4C4"/>
</mask>
<g mask="url(#mask1)">
<rect width="360" height="147.254" fill="url(#paint0_linear)"/>
<path d="M72.4608 71.3249C53.2808 57.1027 41.6408 36.8463 37.4108 12.4596C35.6208 2.16608 34.9408 -8.45823 29.9708 -18.0016C25.0008 -27.5529 14.4008 -36.0153 1.8708 -35.975C-13.5092 -35.9185 -24.7992 -23.4549 -28.9092 -11.1526C-37.5492 14.7184 -36.4392 44.8085 -12.5892 65.3472C5.9808 81.3442 34.0108 89.1451 50.4708 106.57C66.4108 123.438 69.3108 147.163 87.8408 162.216C97.6008 170.146 110.791 174.793 124.171 177.705C143.121 181.819 163.711 182.691 182.081 177.14C200.461 171.59 216.121 158.812 219.341 143.194C227.781 102.254 162.891 96.8491 128.771 92.3719C105.691 89.3387 86.9308 82.046 72.4608 71.3249Z" fill="url(#paint1_linear)"/>
<path d="M341.78 23.2089C327.68 26.4922 313.08 19.0141 303.41 10.108C293.74 1.202 286.44 -9.59979 274.61 -16.6101C249.48 -31.4857 209.65 -22.0553 194.5 -0.0806656C179.35 21.9021 187.51 51.371 209.57 69.1427C231.62 86.9145 264.82 93.7553 295.82 91.1174C323.06 88.8022 349.77 79.404 368.4 63.2134C387.03 47.0229 396.77 23.814 391.46 2.13778C388.35 -10.5598 371.57 -27.1053 363.76 -10.8179C357.71 1.83929 363.72 18.1025 341.78 23.2089Z" fill="url(#paint2_linear)"/>
<path d="M190.764 247.853C177.007 245.999 167.137 238.53 158.434 231.94C153.774 228.413 149.366 225.078 144.656 222.685C134.013 217.281 124.523 215.228 115.342 213.243C100.502 210.039 85.1558 206.721 68.6428 189.964C52.0174 173.087 45.782 157.021 49.5851 140.847C53.3109 124.986 66.5831 111.273 77.7253 101.105C84.9941 94.4645 90.0767 86.2473 95.4474 77.548C100.122 69.983 104.952 62.1627 111.503 55.0683C128.312 36.8815 144.677 30.3542 166.223 33.2577C174.533 34.3749 183.074 36.7851 192.114 39.337C200.107 41.5884 208.367 43.9192 217.625 45.7509C218.518 45.9267 219.467 46.0855 220.437 46.2159C225.147 46.8511 230.11 46.8681 235.354 46.8908C240.957 46.9134 246.743 46.9361 252.627 47.7301C259.67 48.6771 265.73 50.6109 271.136 53.6336C287.853 62.9736 289.385 73.6407 290.869 83.9506C291.473 88.1528 292.099 92.4911 293.765 96.9995C295.895 102.75 299.733 108.052 303.796 113.672C310.011 122.258 316.436 131.139 317.076 142.305C318.306 163.798 300.816 175.735 287.558 182.847C283.305 185.132 279.115 186.93 275.066 188.671C266.644 192.289 259.375 195.414 254.602 201.714C253.175 203.597 252.416 206.824 251.685 209.943C250.806 213.685 249.892 217.559 247.65 221.041C239.537 233.653 221.794 246.94 200.444 248.21C197.154 248.392 193.9 248.273 190.764 247.853Z" stroke="url(#paint3_linear)" stroke-miterlimit="10" stroke-dasharray="25 25"/>
<path d="M74.1473 186.436C99.0679 211.729 119.215 203.058 148.403 217.882C165.035 226.326 176.536 243.923 199.931 242.539C217.527 241.496 233.527 230.675 241.414 218.415C245.098 212.687 244.592 204.05 248.606 198.748C256.894 187.809 270.574 185.138 283.67 178.117C298.763 170.019 311.03 159.624 310.053 142.56C309.104 125.916 292.76 114.12 287.023 98.6155C281.02 82.3852 287.473 69.6596 267.129 58.2836C250.947 49.2384 232.768 54.5804 215.945 51.2516C172.944 42.7508 149.45 23.4808 117.134 58.4537C103.616 73.0848 97.5073 91.6005 82.9837 104.854C57.1703 128.428 41.0862 152.881 74.1473 186.436Z" fill="url(#paint4_linear)"/>
</g>
</g>
<defs>
<linearGradient id="paint0_linear" x1="360" y1="0" x2="173.243" y2="214.995" gradientUnits="userSpaceOnUse">
<stop stop-color="#E9DF00"/>
<stop offset="1" stop-color="#47B600"/>
</linearGradient>
<linearGradient id="paint1_linear" x1="93.1234" y1="-35.9751" x2="113.374" y2="131.091" gradientUnits="userSpaceOnUse">
<stop stop-color="#50BA0C"/>
<stop offset="1" stop-color="#69779B" stop-opacity="0"/>
</linearGradient>
<linearGradient id="paint2_linear" x1="326" y1="16.9328" x2="234.509" y2="72.5165" gradientUnits="userSpaceOnUse">
<stop stop-color="#3D9D00"/>
<stop offset="1" stop-color="#75C244"/>
</linearGradient>
<linearGradient id="paint3_linear" x1="109.224" y1="51.3223" x2="220.345" y2="244.248" gradientUnits="userSpaceOnUse">
<stop stop-color="#00A99D"/>
<stop offset="1" stop-color="#FCEE21"/>
</linearGradient>
<linearGradient id="paint4_linear" x1="114.281" y1="57.0397" x2="219.35" y2="239.457" gradientUnits="userSpaceOnUse">
<stop stop-color="#3D9D00"/>
<stop offset="1" stop-color="#008BA9"/>
</linearGradient>
</defs>
</svg>
