<svg width="360" height="205" viewBox="0 0 360 205" fill="none" xmlns="http://www.w3.org/2000/svg">
<mask id="mask0" mask-type="alpha" maskUnits="userSpaceOnUse" x="0" y="0" width="360" height="205">
<path d="M0 0H360V172.458C360 172.458 255.114 206.049 179.035 204.975C105.84 203.941 0 172.458 0 172.458V0Z" fill="#75C244"/>
</mask>
<g mask="url(#mask0)">
<mask id="mask1" mask-type="alpha" maskUnits="userSpaceOnUse" x="0" y="0" width="360" height="210">
<path d="M0 0H360V189.633C360 200.678 351.046 209.633 340 209.633H20C8.95432 209.633 0 200.678 0 189.633V0Z" fill="#C4C4C4"/>
</mask>
<g mask="url(#mask1)">
<rect width="360" height="209.633" fill="url(#paint0_linear)"/>
<path d="M72.4598 101.539C53.2798 81.2923 41.6398 52.4551 37.4098 17.7379C35.6198 3.08385 34.9398 -12.041 29.9698 -25.627C24.9998 -39.2245 14.3998 -51.2716 1.86982 -51.2142C-13.5102 -51.1338 -24.8002 -33.3904 -28.9102 -15.8768C-37.5502 20.9535 -36.4402 63.7901 -12.5902 93.0293C5.97982 115.803 34.0098 126.908 50.4698 151.714C66.4098 175.728 69.3098 209.504 87.8398 230.933C97.5998 242.222 110.79 248.837 124.17 252.983C143.12 258.84 163.71 260.081 182.08 252.179C200.46 244.278 216.12 226.087 219.34 203.853C227.78 145.57 162.89 137.876 128.77 131.502C105.69 127.184 86.9298 116.802 72.4598 101.539Z" fill="url(#paint1_linear)"/>
<path d="M341.78 33.0405C327.68 37.7146 313.08 27.0687 303.41 14.3899C293.74 1.71122 286.44 -13.6663 274.61 -23.6462C249.48 -44.8234 209.65 -31.3982 194.5 -0.114792C179.35 31.1801 187.51 73.1324 209.57 98.4324C231.62 123.732 264.82 133.471 295.82 129.716C323.06 126.42 349.77 113.04 368.4 89.9914C387.03 66.9423 396.77 33.9018 391.46 3.04341C388.35 -15.033 371.57 -38.5874 363.76 -15.4005C357.71 2.61848 363.72 25.7709 341.78 33.0405Z" fill="url(#paint2_linear)"/>
<path d="M190.763 352.846C177.006 350.206 167.136 339.574 158.433 330.193C153.773 325.171 149.365 320.424 144.655 317.017C134.012 309.323 124.522 306.401 115.341 303.575C100.501 299.014 85.1548 294.291 68.6419 270.434C52.0164 246.408 45.781 223.537 49.5841 200.512C53.3099 177.931 66.5821 158.41 77.7244 143.934C84.9932 134.481 90.0757 122.783 95.4465 110.398C100.121 99.6284 104.951 88.4954 111.503 78.3958C128.311 52.5048 144.676 43.2125 166.222 47.346C174.532 48.9365 183.073 52.3676 192.113 56.0006C200.106 59.2056 208.366 62.5237 217.624 65.1314C218.517 65.3817 219.466 65.6077 220.436 65.7934C225.146 66.6976 230.109 66.7218 235.353 66.7541C240.956 66.7864 246.742 66.8187 252.626 67.949C259.669 69.2972 265.729 72.0502 271.135 76.3532C287.852 89.6499 289.384 104.836 290.868 119.513C291.472 125.495 292.098 131.671 293.764 138.089C295.894 146.276 299.732 153.824 303.795 161.825C310.01 174.048 316.435 186.69 317.075 202.587C318.305 233.184 300.815 250.179 287.557 260.302C283.304 263.556 279.114 266.115 275.065 268.594C266.643 273.744 259.374 278.193 254.601 287.162C253.174 289.842 252.415 294.436 251.684 298.876C250.805 304.205 249.891 309.719 247.649 314.676C239.536 332.631 221.793 351.546 200.443 353.355C197.154 353.613 193.899 353.444 190.763 352.846Z" stroke="url(#paint3_linear)" stroke-miterlimit="10" stroke-dasharray="25 25"/>
<path d="M74.1463 265.413C99.067 301.42 119.214 289.076 148.402 310.179C165.035 322.2 176.535 347.251 199.93 345.282C217.526 343.796 233.526 328.392 241.413 310.938C245.097 302.784 244.591 290.488 248.605 282.94C256.893 267.367 270.573 263.564 283.669 253.569C298.762 242.041 311.029 227.242 310.052 202.95C309.103 179.255 292.759 162.463 287.023 140.39C281.019 117.285 287.472 99.1682 267.128 82.9733C250.946 70.0964 232.767 77.7015 215.944 72.9624C172.943 60.8606 149.449 33.4277 117.134 83.2155C103.615 104.045 97.5063 130.404 82.9828 149.271C57.1694 182.831 41.0852 217.643 74.1463 265.413Z" fill="url(#paint4_linear)"/>
</g>
</g>
<defs>
<linearGradient id="paint0_linear" x1="360" y1="0" x2="97.4354" y2="212.323" gradientUnits="userSpaceOnUse">
<stop stop-color="#E9DF00"/>
<stop offset="1" stop-color="#47B600"/>
</linearGradient>
<linearGradient id="paint1_linear" x1="93.1224" y1="-51.2144" x2="133.562" y2="183.139" gradientUnits="userSpaceOnUse">
<stop stop-color="#50BA0C"/>
<stop offset="1" stop-color="#69779B" stop-opacity="0"/>
</linearGradient>
<linearGradient id="paint2_linear" x1="326" y1="24.1057" x2="220.038" y2="69.3255" gradientUnits="userSpaceOnUse">
<stop stop-color="#3D9D00"/>
<stop offset="1" stop-color="#75C244"/>
</linearGradient>
<linearGradient id="paint3_linear" x1="109.223" y1="73.063" x2="288.562" y2="291.778" gradientUnits="userSpaceOnUse">
<stop stop-color="#00A99D"/>
<stop offset="1" stop-color="#FCEE21"/>
</linearGradient>
<linearGradient id="paint4_linear" x1="114.28" y1="81.2025" x2="283.851" y2="288.004" gradientUnits="userSpaceOnUse">
<stop stop-color="#3D9D00"/>
<stop offset="1" stop-color="#008BA9"/>
</linearGradient>
</defs>
</svg>
